<svg width="27" height="27" viewBox="0 0 27 27" fill="none" xmlns="http://www.w3.org/2000/svg">
<g clip-path="url(#clip0_1256_81325)">
<path d="M22.9187 5.93725C22.3645 5.38284 21.7066 4.94304 20.9824 4.64298C20.2582 4.34292 19.482 4.18848 18.6982 4.18848C17.9143 4.18848 17.1381 4.34292 16.4139 4.64298C15.6897 4.94304 15.0318 5.38284 14.4776 5.93725L13.3276 7.08732L12.1775 5.93725C11.0582 4.8179 9.53999 4.18906 7.95699 4.18906C6.37399 4.18906 4.85583 4.8179 3.73648 5.93725C2.61713 7.0566 1.98828 8.57477 1.98828 10.1578C1.98828 11.7408 2.61713 13.2589 3.73648 14.3783L4.88654 15.5283L13.3276 23.9694L21.7686 15.5283L22.9187 14.3783C23.4731 13.8241 23.9129 13.1662 24.2129 12.442C24.513 11.7178 24.6674 10.9416 24.6674 10.1578C24.6674 9.37389 24.513 8.5977 24.2129 7.87353C23.9129 7.14936 23.4731 6.4914 22.9187 5.93725Z" stroke="#3D005E" stroke-width="2.16993" stroke-linecap="round" stroke-linejoin="round"/>
</g>
<defs>
<clipPath id="clip0_1256_81325">
<rect width="26.0392" height="26.0392" fill="white" transform="translate(0.3125 0.933838)"/>
</clipPath>
</defs>
</svg>
