<svg width="22" height="22" viewBox="0 0 22 22" fill="none" xmlns="http://www.w3.org/2000/svg">
<g id="category-2_svgrepo.com">
<path id="Vector" d="M15.582 9.16634H17.4154C19.2487 9.16634 20.1654 8.24968 20.1654 6.41634V4.58301C20.1654 2.74967 19.2487 1.83301 17.4154 1.83301H15.582C13.7487 1.83301 12.832 2.74967 12.832 4.58301V6.41634C12.832 8.24968 13.7487 9.16634 15.582 9.16634Z" stroke="black" stroke-width="1.375" stroke-miterlimit="10" stroke-linecap="round" stroke-linejoin="round"/>
<path id="Vector_2" d="M4.58203 20.1663H6.41536C8.2487 20.1663 9.16537 19.2497 9.16537 17.4163V15.583C9.16537 13.7497 8.2487 12.833 6.41536 12.833H4.58203C2.7487 12.833 1.83203 13.7497 1.83203 15.583V17.4163C1.83203 19.2497 2.7487 20.1663 4.58203 20.1663Z" stroke="black" stroke-width="1.375" stroke-miterlimit="10" stroke-linecap="round" stroke-linejoin="round"/>
<path id="Vector_3" d="M5.4987 9.16634C7.52374 9.16634 9.16537 7.52472 9.16537 5.49967C9.16537 3.47463 7.52374 1.83301 5.4987 1.83301C3.47365 1.83301 1.83203 3.47463 1.83203 5.49967C1.83203 7.52472 3.47365 9.16634 5.4987 9.16634Z" stroke="black" stroke-width="1.375" stroke-miterlimit="10" stroke-linecap="round" stroke-linejoin="round"/>
<path id="Vector_4" d="M16.4987 20.1663C18.5237 20.1663 20.1654 18.5247 20.1654 16.4997C20.1654 14.4747 18.5237 12.833 16.4987 12.833C14.4737 12.833 12.832 14.4747 12.832 16.4997C12.832 18.5247 14.4737 20.1663 16.4987 20.1663Z" stroke="black" stroke-width="1.375" stroke-miterlimit="10" stroke-linecap="round" stroke-linejoin="round"/>
</g>
</svg>
