<svg width="42" height="42" viewBox="0 0 42 42" fill="none" xmlns="http://www.w3.org/2000/svg">
<g clip-path="url(#clip0_1252_71390)">
<path d="M21 42C32.598 42 42 32.598 42 21C42 9.40202 32.598 0 21 0C9.40202 0 0 9.40202 0 21C0 32.598 9.40202 42 21 42Z" fill="#B27AFF"/>
<path d="M25.5947 26.198C25.3304 28.9061 22.1015 34.0694 22.1267 35.1485C22.1518 36.2276 23.2498 41.1597 23.2498 41.1597H16.5118L16.1155 35.0828C16.073 34.4286 14.1025 27.5028 17.493 24.6604L19.2204 24.8437L20.1448 26.033C22.1617 24.4203 23.2329 22.8639 21.5297 19.8929L20.4723 19.9403C19.4831 18.8118 20.0381 18.4758 21.2797 18.2223C22.4067 17.9921 23.2388 18.2233 23.848 18.7451C24.4024 19.3805 25.8017 24.067 25.5936 26.1976L25.5947 26.198Z" fill="#FED298"/>
<path d="M35.4121 10.9244L23.4481 24.8401L16.9414 19.2459L28.9054 5.32983L35.4121 10.9244Z" fill="#83CF8F"/>
<path d="M28.2516 16.87C27.2659 18.0163 25.5375 18.1472 24.3907 17.161C23.2444 16.1749 23.114 14.4465 24.0996 13.3002C25.0858 12.1534 26.8142 12.0229 27.9605 13.0091C29.1068 13.9948 29.2373 15.7237 28.2516 16.87ZM17.7388 19.1858L23.3868 24.0417L34.6116 10.9848L28.9636 6.12939L17.7383 19.1863L17.7388 19.1858Z" fill="#75BD80"/>
<path d="M32.5536 9.96145L30.2847 8.01074C29.6863 8.70694 28.6373 8.78594 27.9417 8.1876L19.6211 17.8655C20.3168 18.4638 20.3963 19.5128 19.798 20.2085L22.0669 22.1592C22.6647 21.4635 23.7136 21.3845 24.4098 21.9828L32.7303 12.305C32.0341 11.7067 31.9556 10.6577 32.554 9.96153L32.5536 9.96145Z" fill="#83CF8F"/>
<path d="M27.9646 13.0046C29.1138 13.9927 29.2442 15.7246 28.2566 16.8728C27.2689 18.0221 25.5371 18.152 24.3883 17.1649C23.2396 16.1777 23.1091 14.4454 24.0968 13.2966C25.0844 12.1478 26.8163 12.0174 27.965 13.0046H27.9646Z" fill="#75BD80"/>
<path d="M26.8072 14.9464C26.741 14.8895 26.6688 14.8638 26.5928 14.8693C26.5162 14.8747 26.4075 14.9191 26.2652 15.0026L26.8033 15.4651C26.9476 15.2413 26.949 15.0679 26.8067 14.9459L26.8072 14.9464ZM25.2963 14.9647C25.3664 15.0249 25.4406 15.0526 25.5186 15.0472C25.5967 15.0423 25.6989 15.0047 25.8249 14.9345L25.2893 14.4745C25.2256 14.5788 25.195 14.6726 25.1974 14.7566C25.2004 14.8406 25.233 14.9103 25.2968 14.9647H25.2963ZM26.9911 14.6953C27.1166 14.8035 27.1798 14.94 27.1808 15.1039C27.1813 15.268 27.12 15.4439 26.996 15.6307L27.3171 15.9069L27.1635 16.0852L26.8546 15.8204C26.7657 15.9237 26.6718 16.017 26.572 16.1C26.4727 16.1826 26.3823 16.2434 26.3003 16.2804L26.0844 16.0946C26.1847 16.0476 26.2885 15.9829 26.3962 15.9019C26.5039 15.8198 26.5928 15.7383 26.664 15.6563L26.0543 15.1325C25.832 15.2703 25.6481 15.343 25.5033 15.3509C25.3585 15.3587 25.2232 15.3089 25.0977 15.2012C24.9766 15.0969 24.9179 14.9645 24.9213 14.8044C24.9243 14.6442 24.9836 14.4798 25.0997 14.3118L24.8477 14.0949L25.0008 13.916L25.2499 14.1305C25.4005 13.9649 25.5754 13.8306 25.7746 13.7273L25.8947 13.9551C25.7218 14.046 25.5691 14.1582 25.4376 14.2911L26.0379 14.8074C26.2089 14.7022 26.3473 14.6325 26.4524 14.5984C26.5582 14.5643 26.6546 14.5544 26.7405 14.5693C26.8265 14.5841 26.9105 14.6261 26.9911 14.6958V14.6953Z" fill="white"/>
<path d="M30.4553 6.29812L22.6441 24.9596L13.918 21.3072L21.7296 2.64526L30.4553 6.29812Z" fill="#83CF8F"/>
<path d="M24.974 14.9681C24.3302 16.5057 22.5623 17.2305 21.0242 16.5867C19.4871 15.943 18.7617 14.1746 19.4055 12.6369C20.0493 11.0998 21.8172 10.3745 23.3553 11.0188C24.8929 11.6622 25.6173 13.43 24.974 14.9681ZM14.7383 20.9724L22.3127 24.1425L29.6416 6.63275L22.0677 3.46216L14.7383 20.9719V20.9724Z" fill="#75BD80"/>
<path d="M27.1338 6.26109L24.0912 4.9873C23.7004 5.92016 22.6272 6.36043 21.6943 5.97004L16.2617 18.9485C17.1951 19.3388 17.6348 20.412 17.244 21.3448L20.2871 22.6181C20.6779 21.6853 21.7506 21.2455 22.6839 21.6359L28.1165 8.65697C27.1832 8.26667 26.7434 7.19345 27.1343 6.26059L27.1338 6.26109Z" fill="#83CF8F"/>
<path d="M23.3565 11.0133C24.8966 11.6586 25.6229 13.43 24.9781 14.9705C24.3333 16.5111 22.5615 17.237 21.0214 16.5921C19.4809 15.9474 18.7545 14.1755 19.3993 12.6349C20.0442 11.0944 21.8159 10.3681 23.3565 11.0133Z" fill="#3FA344"/>
<path d="M22.8006 13.4432C22.7117 13.4062 22.6277 13.4032 22.5501 13.4354C22.4715 13.4675 22.3727 13.5509 22.2516 13.6869L22.974 13.9892C23.0496 13.7052 22.9913 13.5228 22.8011 13.4432H22.8006ZM21.223 13.9764C21.3173 14.016 21.4043 14.0194 21.4843 13.9878C21.5649 13.9557 21.6587 13.8821 21.7674 13.7655L21.0495 13.4651C21.0173 13.5956 21.0173 13.7047 21.049 13.7922C21.0801 13.8796 21.1384 13.9409 21.2234 13.9765L21.223 13.9764ZM22.9088 13.1176C23.0768 13.1883 23.1894 13.3094 23.2463 13.4818C23.3026 13.6537 23.2981 13.8593 23.2319 14.0974L23.6622 14.2777L23.5619 14.5173L23.1479 14.3444C23.0896 14.4828 23.0229 14.6127 22.9468 14.7337C22.8702 14.8548 22.7962 14.9482 22.7235 15.0154L22.4339 14.8938C22.5223 14.8108 22.6093 14.7075 22.6948 14.586C22.7797 14.4635 22.8455 14.3474 22.8919 14.2372L22.0747 13.8953C21.8884 14.1151 21.7204 14.254 21.5717 14.3114C21.4225 14.3692 21.2634 14.3627 21.0954 14.2921C20.9333 14.2244 20.8266 14.1058 20.7752 13.9368C20.7239 13.7673 20.7303 13.5751 20.7945 13.3592L20.457 13.2179L20.5574 12.9783L20.8914 13.1181C20.9927 12.8933 21.131 12.6927 21.3044 12.5164L21.5075 12.715C21.3573 12.8686 21.2353 13.0381 21.1419 13.2229L21.9473 13.5599C22.0906 13.3914 22.2116 13.2713 22.3109 13.1992C22.4103 13.1276 22.5071 13.0846 22.6025 13.0702C22.6973 13.0564 22.7996 13.0722 22.9088 13.1176Z" fill="#7DBF76"/>
<path d="M25.5922 3.60791L25.6387 23.8386L16.1787 23.8604L16.1328 3.62965L25.5922 3.60791Z" fill="#83CF8F"/>
<path d="M23.9029 13.7274C23.9068 15.3945 22.559 16.7483 20.8924 16.7523C19.2253 16.7562 17.8715 15.4083 17.867 13.7412C17.8636 12.0747 19.2114 10.7203 20.8781 10.7169C22.5451 10.7125 23.8994 12.0608 23.9029 13.7274ZM16.8018 23.2348L25.0121 23.2155L24.9686 4.23389L16.7578 4.25267L16.8018 23.2343V23.2348Z" fill="#75BD80"/>
<path d="M22.5168 4.86426L19.2183 4.87213C19.2202 5.88358 18.4021 6.7052 17.3906 6.70766L17.4233 20.777C18.4347 20.7745 19.2568 21.5932 19.2593 22.6042L22.5579 22.5963C22.5554 21.5849 23.3736 20.7632 24.3845 20.7608L24.3524 6.69142C23.3409 6.69339 22.5188 5.87521 22.5163 4.86426H22.5168Z" fill="#83CF8F"/>
<path d="M20.8802 10.7105C22.5498 10.7065 23.907 12.0578 23.911 13.7274C23.915 15.3975 22.5642 16.7547 20.8946 16.7577C19.2245 16.7617 17.8678 15.4108 17.8633 13.7413C17.8598 12.0712 19.2107 10.7144 20.8802 10.7105Z" fill="#75BD80"/>
<path d="M21.3117 13.1647C21.2158 13.1652 21.1373 13.1953 21.0775 13.2551C21.0182 13.3149 20.9589 13.4304 20.9007 13.6024L21.6833 13.6009C21.6423 13.3099 21.5183 13.1646 21.3118 13.1651V13.1647H21.3117ZM20.0646 14.2685C20.1669 14.2685 20.2484 14.2374 20.3102 14.1776C20.372 14.1168 20.4298 14.012 20.4841 13.8633L19.7054 13.8648C19.7271 13.9977 19.7691 14.098 19.8314 14.1662C19.8936 14.2348 19.9712 14.269 20.0641 14.2685H20.0646ZM21.285 12.8228C21.4678 12.8228 21.618 12.8904 21.7375 13.0273C21.8562 13.1637 21.9317 13.3554 21.9629 13.6005L22.4298 13.5995L22.4303 13.8594L21.9817 13.8599C21.9817 14.0106 21.9708 14.1563 21.947 14.2967C21.9238 14.438 21.8917 14.5531 21.8507 14.6435H21.5364C21.5853 14.5324 21.6258 14.4039 21.6575 14.2581C21.6886 14.1129 21.7039 13.9805 21.7034 13.8604L20.818 13.8623C20.7315 14.1376 20.6307 14.3307 20.5156 14.4414C20.4005 14.553 20.2518 14.6079 20.0689 14.6084C19.8931 14.6089 19.7488 14.5412 19.6361 14.4053C19.523 14.2695 19.4543 14.0896 19.4296 13.8653L19.063 13.8658L19.0625 13.6064L19.4252 13.6059C19.4311 13.3588 19.48 13.1207 19.5724 12.8909L19.8362 12.9952C19.7571 13.1953 19.7112 13.3989 19.6968 13.6054L20.5699 13.6034C20.6366 13.393 20.7018 13.2349 20.7651 13.1301C20.8283 13.0249 20.9009 12.9483 20.9834 12.8979C21.0659 12.8485 21.1658 12.8232 21.2843 12.8228H21.285Z" fill="white"/>
<path d="M17.7817 3.96899L25.8799 22.5079L17.211 26.2946L9.11328 7.75523L17.7817 3.96899Z" fill="#83CF8F"/>
<path d="M20.2636 13.9236C20.9311 15.4514 20.2335 17.2302 18.7062 17.8976C17.179 18.5646 15.3997 17.8675 14.7327 16.3398C14.0657 14.812 14.7633 13.0333 16.2906 12.3663C17.8178 11.6988 19.5971 12.3964 20.2641 13.9236H20.2636ZM17.5352 25.4721L25.0593 22.1858L17.4616 4.79077L9.9375 8.07752L17.5356 25.4721H17.5352Z" fill="#75BD80"/>
<path d="M15.4602 6.34668L12.4374 7.66689C12.8425 8.59384 12.4191 9.67387 11.4922 10.0785L17.1239 22.972C18.0513 22.5668 19.1309 22.9902 19.5355 23.9171L22.5584 22.5964C22.1532 21.67 22.5767 20.5904 23.5035 20.1853L17.8714 7.29184C16.9445 7.69749 15.8649 7.27355 15.4598 6.34668H15.4602Z" fill="#83CF8F"/>
<path d="M16.287 12.3607C17.8172 11.6922 19.5994 12.3913 20.2679 13.9215C20.9364 15.4517 20.2383 17.2349 18.7076 17.9029C17.1769 18.5714 15.3947 17.8728 14.7262 16.3421C14.0577 14.8119 14.7568 13.0297 16.287 12.3607Z" fill="#75BD80"/>
<path d="M17.6595 14.4399C17.5716 14.4789 17.5113 14.5373 17.4807 14.6158C17.4496 14.6943 17.4416 14.8233 17.4565 15.0051L18.1739 14.6918C18.0202 14.4409 17.8487 14.3569 17.6595 14.4399ZM16.9554 15.9488C17.0488 15.9078 17.1115 15.8475 17.1437 15.768C17.1763 15.6875 17.1877 15.5685 17.1788 15.4098L16.4648 15.7216C16.5379 15.8352 16.6165 15.9104 16.701 15.9479C16.7855 15.9859 16.8699 15.9864 16.9554 15.9488ZM17.4984 14.1365C17.6659 14.0634 17.8314 14.0659 17.9949 14.1439C18.1585 14.2215 18.3033 14.3673 18.4302 14.5797L18.8576 14.393L18.9618 14.6311L18.5508 14.8104C18.6106 14.9477 18.6585 15.0861 18.6931 15.2244C18.7282 15.3628 18.7444 15.4818 18.742 15.5807L18.4544 15.7057C18.4549 15.5841 18.441 15.4508 18.4119 15.304C18.3823 15.1577 18.3437 15.0303 18.2958 14.9211L17.4845 15.2754C17.5146 15.5619 17.4994 15.7799 17.4381 15.9276C17.3763 16.0748 17.2622 16.1855 17.0952 16.2582C16.9341 16.3288 16.7745 16.3239 16.6169 16.2443C16.4592 16.1648 16.3249 16.0274 16.2127 15.8313L15.8772 15.978L15.7734 15.7404L16.105 15.5951C16.0126 15.3663 15.9627 15.1282 15.9553 14.8811L16.2389 14.8713C16.2463 15.0862 16.2843 15.2913 16.3535 15.4864L17.1539 15.1371C17.1312 14.9173 17.1278 14.7468 17.1441 14.6253C17.1604 14.5037 17.1969 14.404 17.2528 14.3259C17.3082 14.2472 17.3902 14.1839 17.4984 14.1365Z" fill="white"/>
<path d="M21.8397 21.247L20.4256 24.386L21.7739 26.7033C23.3095 29.3428 15.7459 28.4128 16.373 25.9409C16.4367 25.6889 16.914 24.0984 17.1586 23.8475L18.9077 22.0514L19.7086 20.1763C20.52 17.7246 22.8235 19.0636 21.8397 21.247Z" fill="#FED298"/>
<path d="M20.2947 19.3998C20.4923 18.9788 21.4874 19.043 21.4686 19.5124L21.0714 20.7318C21.0714 20.7318 20.0733 20.3222 19.7812 20.5035L20.2947 19.3998Z" fill="#FFF7DF"/>
<path d="M13.8164 38.8828H25.4429V41.5277C24.0106 41.836 22.5248 42.0001 21.0005 42.0001C18.4772 42.0001 16.0581 41.5544 13.8169 40.7387V38.8829H13.8164V38.8828Z" fill="#FFE356"/>
<path d="M14.3789 38.8828H24.8759V37.5132H14.3789V38.8828Z" fill="white"/>
</g>
<defs>
<clipPath id="clip0_1252_71390">
<rect width="42" height="42" fill="white"/>
</clipPath>
</defs>
</svg>
