<svg width="140" height="84" viewBox="0 0 140 84" fill="none" xmlns="http://www.w3.org/2000/svg">
<path d="M112.002 8.85742H19.5879V71.2838H112.002V8.85742Z" fill="white" stroke="#3D005E" stroke-width="2.09" stroke-miterlimit="10"/>
<path d="M110.272 10.3779H21.3184V69.8462H110.272V10.3779Z" stroke="#3D005E" stroke-width="2" stroke-miterlimit="10"/>
<path d="M31.748 17.0479L33.4965 29.7605L42.5821 25.2331L46.2516 41.2545L59.8818 33.4183L62.3275 47.1777L77.7044 38.6436L79.8015 54.6651L87.7802 48.9768L95.8182 57.453" stroke="#3D005E" stroke-width="1.92" stroke-miterlimit="10"/>
<path d="M29.7578 17.9111V62.6838H103.057" stroke="#3D005E" stroke-width="2" stroke-miterlimit="10"/>
<path fill-rule="evenodd" clip-rule="evenodd" d="M44.6061 62.3071C44.9717 62.1147 45.3288 61.9054 45.6808 61.6875C45.7309 61.6569 45.767 61.6078 45.7813 61.5508C45.7957 61.4937 45.7873 61.4332 45.7578 61.3823C45.7283 61.3315 45.6801 61.2943 45.6236 61.2788C45.5671 61.2633 45.5068 61.2707 45.4557 61.2995L45.0664 61.5071C45.1686 61.4188 45.2631 61.3221 45.3491 61.2178C45.6774 60.9233 45.256 60.3667 44.8836 60.6084C44.5638 60.8622 44.2156 61.0776 43.8461 61.2501C43.0641 61.5905 42.2026 61.6382 41.3631 61.6484C41.0614 61.6366 40.7595 61.667 40.4661 61.7386C40.5828 61.2671 40.8757 60.9114 41.0297 60.4552C41.1448 59.994 40.483 59.6808 40.2494 60.1233C40.1919 60.2323 40.136 60.3412 40.0802 60.4518C39.5724 60.9165 38.7261 60.8756 38.2183 61.3726C37.9484 61.6272 37.7754 61.9685 37.7292 62.3377C37.6903 62.5794 37.7495 62.8194 37.6056 63.0322C36.9083 64.0262 35.8048 65.5955 35.2361 66.6882C34.84 64.0908 33.7805 60.8791 32.6871 58.503C32.3406 57.7343 31.8975 57.0136 31.3686 56.3584C31.4295 56.1439 31.2128 55.7627 31.074 55.8801C30.6492 55.3576 29.8893 55.2214 29.2918 54.961C28.4615 54.5842 27.8075 53.9003 27.4655 53.0513C27.039 51.4718 25.9845 51.2709 24.5255 51.3492C23.1275 51.3492 22.0933 51.9483 21.7887 53.3798C21.1692 54.4657 19.7068 54.287 18.6541 54.5712C17.8827 54.7512 17.1343 55.019 16.4233 55.3695C15.6311 54.6155 12.7978 57.7847 12.5405 58.6034C12.6912 58.6323 12.8418 58.6681 12.9908 58.7123C13.0181 58.7198 13.0415 58.7379 13.0556 58.7626C13.0697 58.7873 13.0735 58.8167 13.0661 58.8442C13.0587 58.8718 13.0407 58.8952 13.0161 58.9094C12.9915 58.9236 12.9623 58.9274 12.9349 58.92C12.7677 58.88 12.5981 58.851 12.4271 58.8332C12.4271 58.8485 12.417 58.8655 12.4136 58.8808H12.3577C12.4011 58.903 12.442 58.9298 12.4796 58.9608C12.5744 59.0408 12.4508 59.194 12.3493 59.131C12.2444 59.0769 12.1286 59.0478 12.0108 59.0459C12.0108 59.2825 11.1645 59.017 11.0342 58.9387C10.4553 58.8672 9.85952 58.9387 9.3179 58.663C8.59856 58.5115 7.87415 58.343 7.16158 58.1524C6.97371 58.2255 6.79599 58.4928 6.94662 58.6834C6.96402 58.7023 6.97421 58.7268 6.97537 58.7525C6.97653 58.7782 6.9686 58.8035 6.95299 58.8239C6.93737 58.8443 6.91507 58.8585 6.89005 58.8639C6.86503 58.8693 6.8389 58.8657 6.8163 58.8536C6.46496 58.6254 6.16979 58.3198 5.95309 57.96C5.84308 57.8494 5.64843 57.8732 5.50118 57.8273C5.48059 57.8624 5.4695 57.9023 5.46902 57.943C4.84447 58.0468 5.28961 58.7328 5.60443 58.9472C5.43517 59.0561 5.43517 59.2706 5.44532 59.4493C5.42698 59.4816 5.41609 59.5177 5.41345 59.5548C5.41081 59.5919 5.4165 59.6292 5.43009 59.6638C5.54688 59.9361 5.80076 60.1659 5.99541 60.3855C6.19227 60.6351 6.41465 60.8633 6.65889 61.0663C7.66043 61.8054 8.83557 62.2705 10.0694 62.416C10.5044 62.4824 11.1306 62.5862 11.3997 62.9556C11.3225 63.3905 11.2231 63.8211 11.1019 64.2457C10.9478 64.8142 10.958 65.4099 10.9563 65.9886C10.9509 65.9837 10.9444 65.9803 10.9373 65.9786C10.9302 65.977 10.9229 65.9772 10.9159 65.9792C10.9089 65.9813 10.9026 65.9851 10.8975 65.9903C10.8924 65.9956 10.8888 66.002 10.8869 66.0091C10.8728 66.2493 10.802 66.4826 10.6804 66.6899C10.5531 67.07 10.4657 67.4625 10.4198 67.8609C10.2302 69.7332 10.1845 71.6565 10.6144 73.4981C10.7794 74.1799 11.0501 74.8312 11.4167 75.4283C11.4602 75.5046 11.527 75.5648 11.6071 75.6C11.6873 75.6353 11.7766 75.6437 11.8618 75.624C12.4139 75.8912 13.0314 75.9911 13.639 75.9116C15.5854 75.3568 14.9067 76.6929 17.6351 76.2827C22.3455 75.6802 27.105 76.8665 31.8035 76.1703C31.9203 77.069 33.4352 76.8103 33.9616 76.4308C35.539 75.2512 36.3227 71.5135 37.1148 69.6225C37.6598 68.1298 38.5704 65.4831 39.7653 64.4806C40.1325 64.2168 40.5487 64.0299 40.9891 63.9308C42.6038 63.5121 44.2269 63.1156 45.845 62.7088C46.1209 62.6407 46.0701 62.1692 45.7773 62.1981L44.6061 62.3071Z" fill="white"/>
<path fill-rule="evenodd" clip-rule="evenodd" d="M8.63281 62.0269C8.52312 62.0073 8.41505 61.9794 8.30953 61.9435C8.14028 61.8958 7.98795 61.8397 7.83054 61.7733C7.5058 61.6442 7.19361 61.4852 6.89794 61.2984C6.41825 60.9968 6.00521 60.5994 5.68437 60.1308L5.66237 60.0985C5.48127 59.821 5.1546 59.2049 5.52189 58.9938C5.27985 58.7913 5.05305 58.427 5.0649 58.1428C5.08352 57.7445 5.57267 57.7496 5.81978 57.9181C5.976 58.0361 6.11403 58.1766 6.22938 58.3351C6.36648 58.5053 6.51204 58.6653 6.66437 58.8202C6.70329 58.8611 6.74392 58.9019 6.78623 58.9411L6.82685 58.9802C6.82685 58.9649 6.815 58.9496 6.80993 58.9326C6.76574 58.7984 6.76946 58.6529 6.82043 58.5212C6.87141 58.3895 6.96645 58.2797 7.0892 58.2109C7.16698 58.1826 7.24978 58.171 7.33228 58.1769C7.41478 58.1828 7.49514 58.2059 7.56819 58.2449L7.59189 58.2551C7.7994 58.3427 8.01191 58.4177 8.22829 58.4798C9.11181 58.73 10.0326 58.7726 10.9364 58.8968C11.2902 58.9438 11.6411 59.0109 11.9875 59.0977C12.1427 58.5275 12.418 57.9975 12.7948 57.5437C14.4874 55.4127 17.2598 54.708 19.8003 54.2519C20.0322 54.2093 20.2251 54.5191 20.3589 54.4459C20.6127 54.3022 20.8414 54.1177 21.0359 53.8996C21.4573 53.4451 21.7552 52.9124 22.1056 52.4069C22.2748 52.1567 22.6794 52.3796 22.5186 52.6486L22.439 52.7796C22.1332 53.339 21.7471 53.85 21.2931 54.2961C21.0511 54.5207 20.7668 54.6943 20.457 54.8068C20.1922 54.9113 19.9029 54.9361 19.6243 54.8783C20.3241 55.8488 21.1404 56.7286 22.0548 57.4977C22.9722 58.2849 23.9298 59.0235 24.9237 59.7104L25.0066 59.7683C26.6193 58.5877 27.9531 57.0639 28.913 55.3055C28.7104 55.2587 28.5181 55.1744 28.346 55.057C28.1384 54.9465 27.953 54.7982 27.7993 54.6195C27.4727 54.2179 27.515 53.7004 27.4608 53.2136C27.4608 53.1847 27.4964 53.1762 27.515 53.1915C27.6927 53.3396 27.7536 53.583 27.8281 53.7923C27.8926 54.0161 28.0174 54.2176 28.1886 54.3744C28.3702 54.5206 28.5699 54.6425 28.7827 54.737C28.8877 54.7863 29.4174 54.9174 29.4767 55.0263C30.389 54.8102 31.2776 55.1829 31.9546 55.811C32.6316 56.439 33.0869 57.2067 33.51 57.9845C33.9566 58.8164 34.338 59.6819 34.6508 60.5733C34.9801 61.4726 35.2171 62.4034 35.3583 63.3511C35.4734 64.1528 35.5445 64.9664 35.5902 65.7782V65.8787C36.2672 64.8132 36.9583 63.7579 37.6636 62.7128C37.4943 62.2822 37.6805 61.8414 37.9818 61.5078C38.3203 61.1401 38.7756 60.9682 39.2173 60.7691L39.2749 60.7435C39.4906 60.6507 39.6945 60.5324 39.8825 60.3912C40.0518 60.2516 40.1889 60.0508 40.3751 59.9266C40.6459 59.7376 41.135 59.7785 41.1486 60.1921C41.1366 60.4291 41.0755 60.661 40.9691 60.8729C40.8681 61.1019 40.7341 61.3146 40.5714 61.5044C40.5648 61.513 40.5568 61.5205 40.5477 61.5265C40.7717 61.5656 40.9977 61.5918 41.2247 61.6048C41.6869 61.627 42.1499 61.5893 42.6025 61.4925C43.0652 61.3942 43.5115 61.2297 43.9277 61.004C44.2832 60.8099 44.6048 60.5597 45.0144 60.5019C45.0518 60.4953 45.0897 60.4913 45.1278 60.4899C45.1443 60.4899 45.1606 60.4936 45.1754 60.5009C45.1902 60.5083 45.2031 60.5189 45.2131 60.5321C45.2231 60.5454 45.23 60.5607 45.2331 60.577C45.2362 60.5933 45.2355 60.6101 45.231 60.6261C45.2175 60.6618 45.2022 60.6959 45.187 60.7316C45.043 61.0524 44.831 61.3376 44.5658 61.5673L44.5455 61.5861C44.6403 61.552 44.7334 61.5163 44.8231 61.4737C45.3596 61.232 45.8386 60.8644 46.4209 60.718C46.448 60.7095 46.475 60.7044 46.5038 60.6976C46.5412 60.6832 46.5824 60.6826 46.6202 60.6959C46.658 60.7092 46.6898 60.7356 46.7101 60.7703C46.7304 60.805 46.7378 60.8458 46.7311 60.8854C46.7243 60.9251 46.7037 60.9611 46.6731 60.9869L46.6223 61.0499C46.3683 61.3708 46.0849 61.6672 45.776 61.935C45.6694 62.0252 45.5594 62.1137 45.4477 62.1988C45.4003 62.2345 45.3529 62.2703 45.3038 62.3043L45.2801 62.3214L45.4493 62.1988C45.8014 62.0916 46.1467 61.9656 46.4869 61.8244C46.6223 61.7682 46.7255 61.9061 46.7408 62.0184C46.7882 62.3979 46.3701 62.6703 46.0993 62.8524C45.8245 63.0324 45.5289 63.1782 45.2192 63.2864C44.6245 63.4825 44.0114 63.6166 43.3895 63.6864L43.0882 63.7273C41.9034 63.8975 40.6543 64.0949 39.7996 65.0276C39.3206 65.5502 38.9973 66.1986 38.7011 66.8369C38.4049 67.4752 38.1443 68.1305 37.8971 68.7875C37.65 69.4445 37.4198 70.1627 37.1829 70.8521C36.9662 71.4835 36.7056 72.1065 36.4483 72.7243L36.4077 72.8231C35.8923 74.1373 35.1819 75.3654 34.3005 76.4655C34.1515 76.6476 33.9095 76.3906 34.0466 76.2119C34.9978 74.9779 35.6596 73.5226 36.2063 72.0707C36.4534 71.4103 36.6616 70.7346 36.9002 70.0708L37.0424 69.6759C37.2337 69.15 37.4249 68.6258 37.6246 68.1032C37.8736 67.4412 38.1561 66.7925 38.4709 66.1595L38.5048 66.0931C38.7964 65.4698 39.1978 64.9046 39.6896 64.4251C40.6052 63.5945 41.8239 63.3954 43.0036 63.2337L43.3743 63.1843C43.874 63.1262 44.3693 63.0347 44.8569 62.9103C45.1371 62.8364 45.4084 62.732 45.666 62.5988C45.7675 62.5443 45.8674 62.4848 45.9639 62.4201C45.6883 62.5018 45.4087 62.5689 45.1261 62.6209C44.9856 62.6464 44.8485 62.6652 44.7114 62.6788C44.3568 62.7097 44.0004 62.7143 43.6451 62.6924C43.6146 62.6924 43.6045 62.643 43.6366 62.6362C43.8888 62.592 44.1444 62.5341 44.3932 62.466L44.4694 62.449C44.4711 62.4013 44.489 62.3557 44.5201 62.3197C44.6454 62.1665 44.884 62.0882 45.0482 61.9792C45.2238 61.8664 45.3933 61.7442 45.556 61.6133C45.7032 61.4924 45.842 61.3665 45.9774 61.2337C45.6135 61.4039 45.2682 61.6201 44.8891 61.7529C44.5862 61.862 44.2704 61.9313 43.9497 61.9588H43.9091C43.5752 61.9638 43.242 61.9928 42.9122 62.0456C42.9056 62.046 42.8991 62.0442 42.8938 62.0403C42.8884 62.0365 42.8845 62.0309 42.8827 62.0246C42.8809 62.0182 42.8814 62.0114 42.884 62.0053C42.8866 61.9992 42.8911 61.9942 42.897 61.9912C43.1837 61.8848 43.4811 61.8101 43.7839 61.7682C43.7878 61.7552 43.7946 61.7434 43.8037 61.7334C43.8127 61.7233 43.8239 61.7155 43.8363 61.7103L43.9125 61.6729C44.1442 61.5724 44.3589 61.4363 44.5489 61.2695C44.717 61.1098 44.8572 60.9228 44.9636 60.7163C44.5404 60.8099 44.1698 61.1316 43.7788 61.312C43.3608 61.51 42.9186 61.6514 42.4637 61.7324L42.4112 61.7409C41.5649 61.8839 40.5392 61.8652 39.7776 61.421C39.7539 61.4073 39.7776 61.375 39.7962 61.3784C40.0112 61.4142 40.2261 61.4567 40.4394 61.4925C40.4264 61.4828 40.4157 61.4704 40.408 61.4562C40.4002 61.442 40.3956 61.4263 40.3945 61.4101C40.3934 61.3939 40.3958 61.3777 40.4015 61.3625C40.4072 61.3474 40.416 61.3336 40.4275 61.3222C40.6202 61.1014 40.7701 60.8463 40.8693 60.5699L40.8879 60.5155C40.9319 60.3878 41.0081 60.1887 40.9302 60.0729C40.8524 59.9572 40.6831 59.9776 40.5799 60.0236C40.3632 60.1223 40.221 60.364 40.0382 60.5138C39.8377 60.67 39.6181 60.7998 39.3849 60.9001L39.3358 60.924C38.9364 61.1044 38.5116 61.2559 38.1967 61.5742C38.0195 61.7436 37.8938 61.9602 37.8345 62.1988C37.808 62.3107 37.808 62.4273 37.8345 62.5392C37.8582 62.6243 37.9073 62.6771 37.8785 62.7639C37.8139 62.8856 37.7362 62.9998 37.6467 63.1043L37.4165 63.4447C37.263 63.6717 37.1101 63.9031 36.9578 64.1391C36.6509 64.6021 36.3485 65.0673 36.0506 65.5348L35.7578 65.991L35.6139 66.2191L35.536 66.3399L35.4057 66.5476C35.4116 66.5658 35.4116 66.5855 35.4057 66.6037C35.3846 66.6623 35.3439 66.7116 35.2906 66.7433H35.2805C34.5171 67.9569 33.7673 69.1772 33.009 70.3942C32.9684 70.7653 32.9295 71.1363 32.8973 71.5091C32.8229 72.3499 32.7704 73.1924 32.7552 74.0366C32.7552 74.4451 32.7789 74.857 32.7975 75.2655C32.8059 75.4595 32.8178 75.6553 32.833 75.8493L32.8432 75.9872C32.8702 76.1742 32.8552 76.365 32.7992 76.5455C32.7883 76.5805 32.7683 76.6119 32.7412 76.6366C32.7142 76.6612 32.6811 76.6781 32.6454 76.6856C32.6096 76.693 32.5726 76.6908 32.538 76.679C32.5035 76.6672 32.4727 76.6464 32.4488 76.6186C31.035 76.5608 29.6205 76.5182 28.2056 76.491C25.6667 76.4416 23.1397 76.4501 20.6077 76.4995C19.3371 76.5233 18.0654 76.5574 16.7926 76.6016C16.1664 76.622 15.5385 76.6527 14.9122 76.6612C14.5737 76.6612 14.0422 76.5421 14.0151 76.1591V76.1472C13.9723 76.1594 13.9288 76.1691 13.8848 76.1761C13.8657 76.1787 13.8464 76.1787 13.8273 76.1761H13.8188C13.311 76.331 12.678 76.1097 12.2007 75.9821L12.1601 75.9719C11.7197 75.8858 11.3229 75.648 11.0379 75.2995C10.5149 74.634 10.3355 73.7388 10.2424 72.9167C10.1496 72.1385 10.1542 71.3517 10.256 70.5746C10.2129 69.9408 10.2362 69.3041 10.3254 68.6751C10.3609 68.3637 10.4015 68.0539 10.4523 67.7458C10.4794 67.5756 10.5149 67.4054 10.5522 67.2352C10.5674 67.1671 10.5793 67.0939 10.5979 67.0224V66.9918C10.5351 66.999 10.4717 66.9858 10.4168 66.9544C10.3522 66.9105 10.3007 66.8498 10.2679 66.7787C10.2351 66.7076 10.2222 66.6289 10.2306 66.551C10.2345 66.0843 10.2662 65.6182 10.3254 65.1553C10.3745 64.694 10.4422 64.2328 10.5285 63.7783L10.5522 63.6609C10.6107 63.315 10.7049 62.9761 10.8331 62.6498C10.3267 62.5706 9.82629 62.4569 9.33522 62.3094C9.09356 62.2354 8.85858 62.1409 8.63281 62.0269ZM34.969 66.8573H34.947C34.7456 66.9152 34.5408 66.9629 34.3377 67.0139C33.9892 67.0948 33.6492 67.2088 33.3222 67.3543C33.2545 68.2224 33.1529 69.087 33.0564 69.9534L33.0361 70.1236C33.1851 69.8479 33.338 69.5738 33.4948 69.3015C33.9744 68.489 34.4658 67.6743 34.969 66.8573ZM10.7231 66.9424C10.7177 67.0462 10.707 67.1496 10.691 67.2522C10.6723 67.4139 10.6571 67.5756 10.6385 67.7373C10.5996 68.0607 10.5657 68.3841 10.542 68.7092C10.5268 68.9168 10.5166 69.1262 10.5082 69.3338C10.7113 68.5713 10.9787 67.8258 11.2343 67.0786C11.1901 67.0735 11.1465 67.0643 11.1039 67.0514L11.0278 67.031C10.9838 67.0207 10.8331 66.9833 10.7231 66.9424ZM35.6037 66.2327V66.2667C35.6092 66.3148 35.596 66.3631 35.5671 66.4018C35.5381 66.4404 35.4955 66.4664 35.448 66.4744C35.5056 66.3944 35.5563 66.3127 35.6088 66.2327H35.6037ZM12.4089 60.4882C12.6217 60.5059 12.8309 60.554 13.0301 60.6312H13.0504C13.1976 60.6874 13.4126 60.7589 13.4617 60.9189C13.4642 60.9288 13.4645 60.9392 13.4625 60.9493C13.4605 60.9594 13.4562 60.9689 13.45 60.9771C13.4438 60.9853 13.4359 60.9919 13.4268 60.9966C13.4176 61.0013 13.4076 61.0038 13.3974 61.004C13.2281 61.0159 13.047 60.844 12.8998 60.7861C12.7362 60.7208 12.5659 60.6739 12.392 60.6465C11.9957 60.5882 11.5912 60.6334 11.2173 60.7776C11.1953 60.7861 11.1818 60.7504 11.2021 60.7401C11.5707 60.538 11.9907 60.4503 12.4089 60.4882ZM7.8847 61.5095L7.81023 61.4414C7.61604 61.2588 7.45205 61.0462 7.32446 60.8116L7.29061 60.7487C7.18737 60.5495 7.06212 60.2653 7.30246 60.1223C7.37648 60.086 7.45734 60.066 7.53965 60.0637C7.62196 60.0613 7.70382 60.0767 7.77976 60.1087L7.81192 60.1206C7.88063 60.1444 7.94789 60.1722 8.01333 60.204C8.27364 60.34 8.52419 60.4941 8.76314 60.6653C9.0213 60.8315 9.30847 60.947 9.60942 61.0057H9.63819C9.92762 61.0635 10.2424 61.101 10.4438 61.3461C10.4946 61.4056 10.4438 61.5163 10.3609 61.489C9.80237 61.3001 9.21167 61.2576 8.69882 60.9478C8.48556 60.8184 8.28414 60.6704 8.0675 60.5478C7.95329 60.4818 7.83244 60.4282 7.70698 60.3878L7.63759 60.3674C7.59888 60.352 7.55665 60.3479 7.51572 60.3555C7.45479 60.3776 7.4751 60.4099 7.49372 60.4695C7.64436 60.9376 8.07257 61.3308 8.47033 61.5895C8.56172 61.649 8.65481 61.7035 8.75129 61.7597C9.39446 62.1001 10.1155 62.2703 10.823 62.4558C11.0949 62.5318 11.276 62.5846 11.3663 62.6141C11.5188 62.6079 11.67 62.6444 11.803 62.7196C11.9093 62.7834 11.9992 62.8714 12.0653 62.9766C12.1054 63.0134 12.1322 63.0625 12.1415 63.1162C12.176 63.1954 12.1994 63.279 12.2109 63.3647C12.2145 63.3857 12.2135 63.4073 12.2079 63.4279C12.2023 63.4484 12.1924 63.4676 12.1787 63.4839C12.2532 64.614 11.9502 65.7374 11.6083 66.8097L11.5745 66.9152L11.5525 66.9833C11.1835 68.1203 10.7604 69.2504 10.5708 70.4368C10.4518 71.2356 10.4421 72.0471 10.542 72.8486V72.9031C10.6334 73.6571 10.8077 74.5013 11.2834 75.1072C11.5115 75.3875 11.829 75.58 12.1821 75.6519H12.2024C12.5345 75.7597 12.8739 75.8433 13.218 75.9021C13.5362 75.9361 13.8019 75.817 14.0896 75.7063C14.6922 75.1685 14.9664 74.3872 15.1695 73.5975C15.6925 71.555 15.6282 69.4343 15.3303 67.3628C15.1762 66.2803 14.9647 65.2063 14.7548 64.1289C14.6499 63.5928 14.5365 63.0583 14.4417 62.5205L14.3858 62.2039C14.3554 62.0337 14.3249 61.8516 14.2995 61.6746C14.2656 61.4363 14.2555 61.2031 14.2436 60.9631C13.9481 60.4814 13.5373 60.0817 13.0487 59.8006C12.7048 59.6024 12.3359 59.4518 11.9519 59.353C10.8653 59.0585 9.68051 59.0789 8.58711 58.8526C8.22384 58.7743 7.86772 58.6655 7.52249 58.5275L7.4751 58.5087C7.316 58.4458 7.15352 58.4117 7.07397 58.6007C7.04836 58.6651 7.0405 58.7354 7.05122 58.8039C7.06195 58.8725 7.09085 58.937 7.1349 58.9904C7.34308 59.2679 7.76114 59.3955 8.07427 59.501C8.26384 59.562 8.45721 59.6104 8.65312 59.6457C8.84849 59.6665 9.04164 59.7046 9.23028 59.7598C9.24817 59.7643 9.26404 59.7747 9.27537 59.7894C9.2867 59.804 9.29286 59.822 9.29286 59.8406C9.29286 59.8592 9.2867 59.8772 9.27537 59.8918C9.26404 59.9065 9.24817 59.9169 9.23028 59.9214C8.99338 59.9601 8.751 59.9473 8.51941 59.884C8.25959 59.832 8.00433 59.7591 7.75607 59.6661L7.61389 59.6134L7.57835 59.5981L7.69175 59.6798C7.69361 59.6815 7.69486 59.6838 7.69531 59.6864C7.69576 59.6889 7.69538 59.6915 7.69424 59.6938C7.6931 59.6961 7.69125 59.6979 7.68897 59.6991C7.68669 59.7002 7.68411 59.7006 7.68159 59.7002C7.09427 59.4693 6.57151 59.0984 6.15829 58.6194L6.13798 58.5955C5.99242 58.4253 5.66237 57.9232 5.38479 58.0645C5.10721 58.2058 5.56928 58.7045 5.73854 58.9155L5.75715 58.9411C5.95142 58.9683 6.13553 59.0451 6.292 59.164C6.5653 59.33 6.84786 59.48 7.13828 59.6134C7.71206 59.884 8.32307 60.0746 8.8867 60.3606C8.8867 60.3606 8.8867 60.3742 8.8867 60.3725C8.52477 60.3128 8.16819 60.224 7.82038 60.107H7.80515H7.78822C7.57158 60.0355 7.35662 59.9538 7.14505 59.867C6.90987 59.7716 6.68042 59.6625 6.45787 59.5402C6.25646 59.4296 6.03135 59.2304 5.79778 59.1998C5.77584 59.1973 5.7537 59.1973 5.73177 59.1998C5.46265 59.2236 5.68607 59.6695 5.76054 59.804C5.88324 60.0231 6.03093 60.227 6.2006 60.4116C6.54853 60.7839 6.95943 61.0911 7.41417 61.3188C7.5665 61.3818 7.72391 61.4448 7.8847 61.5163V61.5095Z" fill="#3D005E"/>
<path fill-rule="evenodd" clip-rule="evenodd" d="M25.0384 37.7148C26.6396 37.7148 28.5606 38.4961 28.7248 38.5114C28.8117 38.5114 29.1502 38.769 29.7403 39.2841L29.1073 40.5283L29.1581 40.5777C29.4035 40.8143 29.6134 41.0305 29.7793 41.2007C31.1333 42.5895 31.3736 48.0463 31.0538 49.9492C30.7339 51.8521 30.1465 53.7142 27.3995 53.7142C24.6525 53.7142 21.5991 52.053 21.137 51.5356C21.0091 51.3784 20.8475 51.2522 20.6644 51.1664C20.4812 51.0807 20.2812 51.0376 20.0792 51.0403L20.0318 50.979L19.9743 50.9705C19.5708 50.9323 19.1769 50.8247 18.8098 50.6522C18.3528 50.3918 17.8501 49.0216 17.8501 48.7204C17.8501 48.4191 17.0986 46.249 17.0834 46.0192C17.0834 45.8269 16.1017 44.9435 16.1017 44.6575C16.1017 44.3716 15.9037 44.3937 16.1017 43.4048L16.1592 43.1138C16.3691 42.0619 16.7804 40.3173 18.3596 39.5599C20.0657 38.7259 23.422 37.7148 25.0384 37.7148Z" fill="white"/>
<path fill-rule="evenodd" clip-rule="evenodd" d="M18.0723 39.5187C18.9338 38.5996 23.827 37.1767 26.2964 37.4762L26.3709 37.4864C26.5679 37.5115 26.763 37.5502 26.9548 37.6022C27.5877 37.7301 28.19 37.9797 28.7286 38.3375C29.1568 38.6387 30.5075 39.1306 30.1097 39.9204C30.1862 40.0568 30.2345 40.2072 30.252 40.3628C30.2694 40.5183 30.2556 40.6758 30.2113 40.8259C30.1977 40.9209 30.1715 41.0136 30.1334 41.1016C30.4398 41.5741 30.6967 42.0772 30.9002 42.6028C31.2589 43.8655 31.4618 45.1677 31.5044 46.4801C31.611 48.9362 31.3436 51.8705 29.2178 53.4586C27.9331 54.4645 25.9207 54.4985 24.4786 53.2509C24.3957 53.1522 24.0115 52.8901 24.1401 52.8441C24.1773 52.885 24.2163 52.9241 24.2569 52.9633C24.256 52.9588 24.256 52.9541 24.2569 52.9496L24.2196 52.9156C24.1486 52.8492 24.0504 52.7539 24.1621 52.7726L24.1756 52.7879L24.2281 52.822C24.1672 52.7573 24.1316 52.6926 24.2281 52.7335H24.24L24.3618 52.856C24.3603 52.851 24.3603 52.8457 24.3618 52.8407L24.3229 52.8033C24.2856 52.7658 24.2907 52.7658 24.3093 52.7369C24.2281 52.6228 24.3787 52.6909 24.3889 52.7369C24.4837 52.7131 24.5582 52.8901 24.6259 52.9071C27.2713 54.9496 31.1117 53.1386 31.0491 47.435V47.3243C31.0305 45.4997 30.8799 43.6258 30.1284 41.9748C30.0555 41.8161 29.9742 41.6616 29.8846 41.5118C29.822 41.3995 29.756 41.2905 29.6849 41.1833C29.4848 41.1673 29.2869 41.1308 29.0942 41.0744C29.0282 41.0574 28.9622 41.0386 28.8962 41.0165C27.9365 41.0693 26.9954 41.1271 26.0324 41.1867L25.7311 41.2054C24.9153 41.2582 24.0707 41.3433 23.4106 41.8505C22.764 42.3135 22.7623 43.2258 22.2089 43.733C21.4185 44.2725 21.4134 44.7542 21.261 45.5525C21.2729 46.1499 21.6859 47.0197 20.9225 47.2716C21.0512 47.4554 20.8735 47.3669 20.8582 47.3039C20.9716 47.5167 20.8041 47.3822 20.7905 47.3141C20.7799 47.3114 20.7705 47.3055 20.7634 47.2971C20.8785 47.4826 20.6923 47.3516 20.7042 47.3175C20.4825 46.9771 20.0272 46.9226 19.7039 47.0129C19.7023 47.015 19.7003 47.0167 19.6979 47.0179C19.6956 47.0191 19.693 47.0197 19.6904 47.0197C19.6877 47.0197 19.6851 47.0191 19.6828 47.0179C19.6804 47.0167 19.6784 47.015 19.6768 47.0129C18.3109 47.3107 18.6613 50.1583 20.0644 49.8825C20.1236 49.8706 20.122 49.8996 20.1338 49.903C20.1016 49.8161 20.193 49.8519 20.1913 49.8689H20.2032C20.1727 49.6987 20.3488 49.9472 20.3335 49.9591H20.3504V49.9421C20.3217 49.8638 20.3234 49.8979 20.3234 49.8519C20.3234 49.8059 20.2997 49.8213 20.3047 49.7855C20.3826 49.7242 20.4046 49.9064 20.4317 49.92C20.386 49.8587 20.4215 49.8076 20.4639 49.8417C20.7651 50.5114 21.1888 51.1182 21.713 51.6305C21.7705 51.6765 21.8297 51.7208 21.8822 51.7633C22.1073 51.9607 22.4509 52.0867 22.6608 52.2603C22.6615 52.2637 22.6615 52.2672 22.6608 52.2705L22.7336 52.3063C22.755 52.325 22.7748 52.3455 22.7928 52.3675C22.8109 52.3891 22.8268 52.4125 22.8402 52.4373C22.8402 52.468 22.8317 52.4799 22.803 52.4663L22.7657 52.4526C22.7657 52.4526 22.7979 52.5224 22.7657 52.5122L22.7133 52.4918C22.7336 52.5173 22.7522 52.5445 22.7691 52.5684C22.7854 52.5867 22.7965 52.609 22.8013 52.6331C22.8013 52.6467 22.7928 52.6518 22.7793 52.6501L22.7183 52.6297V52.6399C22.7319 52.6688 22.7539 52.7165 22.7183 52.7011C22.6828 52.6858 22.6574 52.6807 22.6269 52.6671C22.6269 52.6671 22.6269 52.6671 22.61 52.6671C22.5146 52.6331 22.4223 52.591 22.3341 52.5411L22.1006 52.3709C22.026 52.3271 21.9552 52.277 21.889 52.2212C21.4417 51.9312 21.0482 51.5648 20.7262 51.1387C20.2015 51.5965 19.1504 51.1591 18.5005 50.7982C17.9267 50.4766 17.6999 49.8859 17.6424 49.2477C17.5205 48.3881 16.8232 48.0937 16.8705 46.2078C16.8456 46.1993 16.8213 46.1891 16.7978 46.1771C16.7739 46.1652 16.7512 46.151 16.7301 46.1346L16.7047 46.0989C16.6921 46.0921 16.6802 46.0841 16.6691 46.075C16.6539 46.0937 16.6691 46.0648 16.6691 46.0597L16.6234 45.9984C16.5151 45.8504 16.3983 45.6836 16.3018 45.5525C16.3018 45.5525 16.3018 45.5525 16.3018 45.561C16.0548 45.2298 15.8816 44.849 15.7941 44.4445C15.7348 44.1534 15.7412 43.8527 15.8127 43.5645C16.0801 42.6403 16.9382 40.4548 18.0723 39.5187ZM24.2789 52.873L24.2636 52.8611L24.2772 52.8765L24.3009 52.9003V52.8918L24.2789 52.873ZM26.2863 37.9562C24.6089 37.8115 22.9587 38.1843 21.3575 38.637L21.2475 38.6694C20.3369 38.9298 19.3755 39.1647 18.6054 39.7246C17.5306 40.5518 16.9755 41.8692 16.4914 43.0862C16.2921 43.5044 16.2266 43.9745 16.3039 44.4317C16.3812 44.8889 16.5975 45.3108 16.923 45.6393C16.986 45.0165 17.105 44.4006 17.2785 43.7994C17.3157 43.7058 17.2785 43.6751 17.3665 43.6615C17.4866 45.2887 16.8959 46.492 18.0655 48.4188C18.5733 49.3294 17.9859 49.9949 19.4195 50.4731L19.4568 50.4885C19.7437 50.62 20.0614 50.6683 20.3741 50.628L20.3488 50.5855C20.3217 50.5412 20.3132 50.5191 20.3488 50.5004C20.3166 50.4408 20.2861 50.3812 20.2574 50.32L20.2218 50.3302C20.2218 50.3438 20.2218 50.3591 20.2083 50.3642C20.1305 50.3911 20.0483 50.4021 19.9662 50.3966H19.9476C19.8781 50.3928 19.8092 50.3802 19.7428 50.3591L19.6904 50.3489C19.5205 50.307 19.3617 50.2286 19.2249 50.1191C17.8996 49.3617 18.0401 46.7848 19.67 46.5448C19.7039 44.9227 20.4706 42.1841 21.7451 40.6386C22.8961 39.2157 26.0374 38.5962 28.2242 38.8157L28.319 38.8481C28.6575 38.8787 28.9791 39.0302 29.3159 39.1C29.0704 38.9252 28.8006 38.7875 28.5154 38.6915C27.9453 38.3658 27.3243 38.1402 26.6789 38.0243C26.5509 37.9871 26.4192 37.9643 26.2863 37.9562ZM19.5956 47.8281C19.6836 47.7805 19.6734 47.8281 19.6937 47.8128C20.3251 47.7618 21.0072 48.3234 21.3592 48.7813C21.3321 48.8102 21.256 48.7234 21.2424 48.7098L21.2526 48.7234C21.3948 48.9294 21.1121 48.686 21.0833 48.6366C21.0784 48.6382 21.0731 48.6382 21.0681 48.6366C21.1102 48.6696 21.1453 48.7107 21.1713 48.7575L21.19 48.7728C21.3592 48.9209 21.3474 49.0315 21.1527 48.8221C21.1551 48.8305 21.1551 48.8393 21.1527 48.8477C21.2475 48.9141 21.322 49.103 21.1256 48.909C21.1476 49.0502 20.9276 48.7779 20.9208 48.7796C20.5134 48.4466 20.0249 48.2292 19.5059 48.1498H19.4889C19.4026 48.1379 19.3603 48.1124 19.3908 48.0545C19.2841 48.029 19.3095 47.9745 19.3603 47.9762C19.2841 47.9269 19.3603 47.8792 19.3958 47.8979C19.3654 47.8128 19.4872 47.869 19.4991 47.8571C19.5685 47.7839 19.5854 47.8656 19.5956 47.8401V47.8281ZM18.2804 42.6113C18.5834 42.499 19.4805 42.8343 19.4077 43.2768C19.396 43.3024 19.3795 43.3254 19.3589 43.3445C19.3383 43.3636 19.3142 43.3784 19.2879 43.3881C19.2616 43.3978 19.2337 43.4021 19.2057 43.4008C19.1778 43.3995 19.1503 43.3927 19.125 43.3807L18.9964 43.2922C18.773 43.1424 18.5699 43.0096 18.3194 42.8769C18.1891 42.8122 18.1332 42.6726 18.2804 42.6113ZM20.0069 41.9526L19.8884 41.876C19.2571 41.459 18.3651 40.8293 19.9476 41.4812C20.1287 41.5595 20.3691 41.6054 20.4672 41.779C20.6145 42.0973 20.2066 42.1194 19.9984 41.9526H20.0069ZM20.0779 40.0804C20.0272 39.888 20.6585 40.1144 20.8413 40.174L20.8701 40.1859C21.0582 40.2294 21.2291 40.3284 21.3609 40.4701C21.4862 40.6846 21.2323 40.7289 21.0749 40.6404C20.7448 40.4242 20.3911 40.2642 20.0695 40.0838L20.0779 40.0804ZM21.6825 39.1783C21.3271 38.7885 22.2783 39.163 22.4204 39.2668C22.4434 39.2835 22.4619 39.3057 22.4741 39.3314C22.4864 39.3571 22.492 39.3855 22.4905 39.4139C22.4889 39.4424 22.4803 39.47 22.4654 39.4943C22.4506 39.5185 22.4298 39.5386 22.4052 39.5527C22.1175 39.5629 21.9076 39.3179 21.674 39.1817L21.6825 39.1783ZM23.3006 38.7511C22.7353 38.3426 23.48 38.5366 23.7373 38.6966C23.9065 38.8566 23.7237 39.1204 23.2921 38.7545L23.3006 38.7511Z" fill="#3D005E"/>
<path fill-rule="evenodd" clip-rule="evenodd" d="M28.7322 50.5362C28.7818 50.5238 28.8337 50.5245 28.8829 50.5383C28.9321 50.552 28.9769 50.5784 29.013 50.6147C29.0491 50.651 29.0753 50.6961 29.0889 50.7455C29.1026 50.795 29.1033 50.8472 29.091 50.897C29.0436 51.1319 28.7932 51.2119 28.5833 51.2051C28.3446 51.2051 28.106 51.1472 27.8673 51.137C27.6287 51.1268 27.3731 51.1251 27.1277 51.137C26.8988 51.1608 26.6683 51.1642 26.4388 51.1472C26.3508 51.1319 26.3593 51.0162 26.4168 50.977C26.5984 50.8664 26.7986 50.7903 27.0075 50.7524C27.2122 50.6988 27.4203 50.6596 27.6304 50.6349C27.8434 50.6102 28.0575 50.5966 28.2718 50.5941C28.3755 50.6017 28.4796 50.6017 28.5833 50.5941C28.6307 50.5804 28.6798 50.5515 28.7322 50.5362ZM28.0789 47.4878C28.3497 47.658 28.7559 48.0393 28.4699 48.4478C28.1314 48.8086 27.6371 48.395 27.3934 48.2078C27.1683 48.0631 26.9161 48.4359 27.1243 48.6061C28.8778 49.9115 29.5887 47.5321 28.216 47.2938C28.0654 47.2665 28.0095 47.435 28.0789 47.4878ZM26.1223 46.2555C26.1561 46.2475 26.1912 46.2467 26.2253 46.2532C26.2594 46.2596 26.2918 46.2732 26.3204 46.293C26.3489 46.3128 26.3731 46.3384 26.3913 46.3681C26.4094 46.3979 26.4212 46.4311 26.4258 46.4657C26.4305 46.5003 26.4278 46.5355 26.4181 46.569C26.4084 46.6025 26.3919 46.6336 26.3695 46.6603C26.3471 46.687 26.3194 46.7087 26.2882 46.724C26.257 46.7393 26.223 46.7478 26.1883 46.7491L25.9632 46.7695C25.9709 46.7933 25.976 46.8178 25.9784 46.8427C25.9824 46.8653 25.9852 46.888 25.9869 46.9108C25.9871 46.9764 25.97 47.0409 25.9375 47.0978C25.905 47.1546 25.8581 47.2019 25.8016 47.2347C25.7451 47.2675 25.681 47.2847 25.6158 47.2846C25.5505 47.2845 25.4865 47.2672 25.43 47.2342C25.371 47.1993 25.3216 47.1501 25.2862 47.0912C25.2459 47.0274 25.2231 46.954 25.2202 46.8785C25.0509 46.921 24.8816 46.9789 24.7225 47.0095L24.7395 47.0299C24.7395 47.0299 24.7395 47.0453 24.7395 47.0402L24.6548 47.0214L24.5787 47.0299C24.5678 47.0308 24.5568 47.0281 24.5475 47.0224C24.5381 47.0167 24.5308 47.0081 24.5265 46.998C24.5222 46.9879 24.5212 46.9766 24.5236 46.9659C24.5259 46.9551 24.5316 46.9454 24.5398 46.938C24.7102 46.7861 24.9094 46.6703 25.1254 46.5976L25.3268 46.5142C25.582 46.3992 25.8487 46.3119 26.1223 46.2538V46.2555ZM29.0267 46.4155C29.2627 46.3951 29.4999 46.3951 29.7359 46.4155C30.1337 46.441 29.9661 47.0248 29.6462 46.8904C29.6496 46.9112 29.6496 46.9325 29.6462 46.9534C29.6447 47.0025 29.6313 47.0505 29.6071 47.0932C29.5829 47.136 29.5487 47.1721 29.5074 47.1985C29.4642 47.2235 29.4152 47.2368 29.3652 47.2368C29.3153 47.2368 29.2663 47.2235 29.2231 47.1985C29.1812 47.1735 29.1451 47.1398 29.1174 47.0995C29.0896 47.0593 29.0708 47.0135 29.0623 46.9653C29.0487 46.8927 29.0487 46.8183 29.0623 46.7457C29.0663 46.7202 29.0768 46.6962 29.0927 46.6759L29.025 46.6589C28.827 46.6129 28.6307 46.6232 28.4309 46.5942C28.4267 46.5921 28.423 46.5889 28.4205 46.5848C28.418 46.5807 28.4166 46.576 28.4166 46.5712C28.4166 46.5664 28.418 46.5617 28.4205 46.5577C28.423 46.5536 28.4267 46.5504 28.4309 46.5483C28.6213 46.4722 28.8223 46.4268 29.0267 46.4138V46.4155ZM26.0851 44.6096C26.156 44.5905 26.2311 44.5952 26.2992 44.6228C26.3673 44.6504 26.4246 44.6996 26.4625 44.7628C26.4993 44.8273 26.5141 44.9022 26.5047 44.9759C26.4952 45.0497 26.462 45.1183 26.41 45.1713C26.2611 45.3415 25.975 45.4555 25.7652 45.556L25.7482 45.5645C25.5333 45.6683 25.3116 45.7653 25.0864 45.8487C24.8649 45.9295 24.6388 45.9971 24.4094 46.0513C24.2884 46.0808 24.1657 46.1036 24.0421 46.1193C23.9534 46.1209 23.8646 46.1163 23.7764 46.1057C23.7738 46.1048 23.7716 46.103 23.77 46.1007C23.7684 46.0985 23.7676 46.0957 23.7676 46.093C23.7676 46.0902 23.7684 46.0875 23.77 46.0852C23.7716 46.0829 23.7738 46.0812 23.7764 46.0802C23.8627 46.0257 23.927 45.9525 24.0235 45.9015L24.3214 45.7449C24.5228 45.6394 24.7158 45.5236 24.9104 45.4045C25.1051 45.2853 25.3166 45.1509 25.5113 45.0113C25.6854 44.8538 25.8781 44.7183 26.0851 44.6079V44.6096ZM28.5173 44.4973C28.5984 44.4766 28.6844 44.4883 28.7573 44.5298C28.8301 44.5714 28.8842 44.6396 28.9082 44.7203C28.9556 44.8905 28.9082 44.9228 29.0352 45.0436C29.1389 45.1372 29.2473 45.2253 29.3602 45.3075L29.5294 45.43C29.8201 45.6598 30.1358 45.8556 30.4705 46.0138C30.4993 46.0257 30.484 46.0683 30.4552 46.07C29.9177 46.0961 29.382 45.9898 28.8947 45.7602C28.654 45.6584 28.4477 45.4888 28.3006 45.2717C28.1432 45.0045 28.1466 44.5671 28.5173 44.4956V44.4973Z" fill="#3D005E"/>
<path fill-rule="evenodd" clip-rule="evenodd" d="M113.554 51.402C113.723 52.0931 114.254 52.8454 115.295 53.4768C115.265 53.4037 116.25 53.5245 116.286 53.9875C117.946 54.6428 119.774 54.6683 121.394 55.458C122.978 56.275 124.337 57.4648 125.794 58.4758L131.459 62.5999C131.523 62.6461 131.574 62.7071 131.609 62.7777C131.644 62.8482 131.661 62.9262 131.659 63.005C133.013 64.0075 134.095 65.3402 135.044 66.724L135.105 66.8125C135.283 66.9572 135.469 67.2601 135.398 67.4729C135.361 68.1792 134.833 68.7375 134.435 69.2856L134.408 69.3213C133.128 71.0683 131.729 72.7228 130.219 74.2726C129.464 74.9858 128.799 75.9747 127.693 76.0887C126.559 76.1789 125.413 76.0308 124.288 75.8657L123.939 75.8147C123.646 75.7653 123.564 75.3415 123.77 75.1526C126.15 72.935 128.277 70.458 130.112 67.7673L130.054 67.7265L130.007 67.6907C129.753 67.5103 129.295 67.1801 129.022 66.9793L128.895 66.8874C128.639 66.7315 128.405 66.5408 128.201 66.3206C127.417 65.1155 129.344 63.3233 130.356 62.8552C127.737 60.9642 125.148 59.0324 122.521 57.155C121.889 56.6828 121.2 56.2938 120.47 55.9976C119.102 55.487 117.614 55.3849 116.248 54.8844C115.598 59.4255 102.982 58.6426 106.601 53.9858C107.169 53.4615 107.51 53.1109 107.681 52.3092C108.234 50.1153 110.864 49.734 112.784 49.8702C113.594 50.0863 113.39 50.7212 113.554 51.402ZM99.365 67.1461C100.34 66.9316 99.3058 67.4184 99.0637 67.6175C98.7506 67.8609 98.5086 68.1979 98.6812 68.6081C99.4886 70.4923 100.299 72.3782 101.068 74.2811C101.159 74.5024 101.247 74.7236 101.34 74.9432V74.9619C101.393 75.0896 101.401 75.1458 101.528 75.1185C101.877 74.9875 102.056 74.579 102.413 74.4377C103.598 73.7654 105.303 75.607 104.084 75.91C102.198 75.9508 100.309 76.0802 98.4256 76.0921C97.6775 76.0036 97.119 74.7815 96.6942 74.2011C95.5483 72.1229 93.7694 69.146 94.6258 66.7206C95.3553 64.9521 97.0242 62.0195 98.776 64.6696C99.2888 65.3793 99.7408 66.2695 99.365 67.1461ZM109.222 61.0782C109.514 61.0459 109.691 61.3795 109.635 61.6246L109.383 62.7309V62.7667C109.334 63.0777 109.261 63.3844 109.165 63.6841C109.283 64.7513 109.906 65.9751 109.199 66.9503C108.094 68.0771 106.223 68.6728 104.722 68.0703C104.249 67.8734 103.848 67.5346 103.574 67.1001C103.33 66.6595 103.162 66.1799 103.078 65.6823L103.024 65.4372C102.738 64.0926 102.498 62.736 102.713 61.3625C102.737 61.2718 102.791 61.1918 102.865 61.1349C102.94 61.078 103.031 61.0473 103.124 61.0476C105.148 61.3029 107.196 61.3132 109.222 61.0782Z" fill="white"/>
<path fill-rule="evenodd" clip-rule="evenodd" d="M95.6303 65.4256L95.5982 65.497C95.4289 65.8715 95.2681 66.246 95.1242 66.6289C94.8274 67.3474 94.736 68.1349 94.8602 68.9029C95.0188 69.6496 95.2665 70.3742 95.5982 71.0611L95.6388 71.1496C95.9773 71.8968 96.3547 72.6236 96.7576 73.3367C96.9894 73.7469 97.2349 74.1503 97.4701 74.5588C97.5818 74.7545 97.6919 74.9503 97.8086 75.1443C97.8645 75.243 97.9237 75.3384 97.9779 75.4371C98.0402 75.5659 98.0901 75.7004 98.1268 75.8388C98.2301 76.1604 97.8036 76.3851 97.5785 76.1604C97.2793 75.8286 97.0176 75.4644 96.7982 75.0745C96.6035 74.7716 96.4224 74.4584 96.2447 74.1435L96.0975 73.8865C95.6879 73.1631 95.2986 72.4278 94.955 71.6738C94.5805 70.9026 94.3036 70.0872 94.1307 69.2467C94.0456 68.8177 94.016 68.3795 94.0427 67.9429C94.0811 67.5112 94.1957 67.0899 94.3812 66.6987C94.5968 66.2815 94.8464 65.8829 95.1276 65.5073C95.4035 65.0988 95.6557 64.6562 96.0128 64.3158C96.0174 64.3115 96.0233 64.3088 96.0295 64.3081C96.0358 64.3075 96.0421 64.3089 96.0475 64.3122C96.0528 64.3155 96.057 64.3204 96.0593 64.3263C96.0616 64.3322 96.0619 64.3387 96.0602 64.3448C95.9553 64.7193 95.8112 65.0816 95.6303 65.4256ZM114.088 52.3384C114.275 52.5757 114.499 52.781 114.751 52.9461C115.001 53.0788 115.267 53.1805 115.542 53.249C115.593 53.2078 115.65 53.174 115.711 53.1486C115.856 53.0992 116.014 53.1046 116.156 53.1639C116.711 53.1866 117.263 53.2537 117.808 53.3648C118.413 53.4782 119.014 53.6031 119.612 53.7392C120.211 53.8754 120.805 54.0286 121.398 54.192L121.433 54.2022C121.96 54.3452 122.535 54.4626 123.014 54.7332C123.215 54.8526 123.405 54.9911 123.58 55.1468L123.93 55.443L124.644 56.0472C125.045 56.3876 125.448 56.728 125.848 57.0685C126.806 57.8923 127.765 58.7155 128.725 59.5381L130.329 60.8998L131.118 61.5806C131.397 61.8189 131.695 62.047 131.953 62.3091C131.974 62.3311 131.99 62.3577 131.999 62.3868C132.009 62.4159 132.012 62.4468 132.008 62.4772C132.004 62.5076 131.993 62.5368 131.977 62.5625C131.96 62.5882 131.938 62.6098 131.912 62.6257C131.878 62.6478 131.843 62.6716 131.809 62.6972C132.194 62.9634 132.559 63.2581 132.9 63.5788C133.341 63.9941 133.77 64.4299 134.183 64.8656C134.596 65.3013 135.001 65.7558 135.402 66.2085L135.417 66.2255C135.602 66.4154 135.747 66.6405 135.844 66.8876C135.927 67.1591 135.905 67.4519 135.783 67.708C135.538 68.2019 135.252 68.6739 134.928 69.119C134.622 69.5843 134.303 70.0381 133.97 70.4807C133.294 71.4013 132.553 72.2727 131.755 73.0882C130.883 73.9794 129.923 74.7779 128.889 75.4711C128.644 75.6413 128.413 75.2362 128.659 75.0762C130.434 73.9205 131.922 72.3529 133.229 70.6866C133.88 69.856 134.488 68.9846 135.055 68.1012L135.067 68.0825C135.223 67.8754 135.347 67.6459 135.434 67.4017C135.459 67.28 135.456 67.1541 135.423 67.0342C135.39 66.9144 135.33 66.8041 135.246 66.7123L135.228 66.6902C134.889 66.2357 134.473 65.817 134.092 65.3915L133.909 65.1873C133.544 64.7788 133.176 64.372 132.796 63.9754C132.567 63.7388 132.337 63.5005 132.103 63.2674C131.986 63.1482 131.873 63.024 131.765 62.898L131.682 62.8027C131.417 63.0107 131.166 63.2346 130.929 63.4733L130.77 63.6265C129.949 64.4212 129.232 65.3174 128.635 66.2936L128.676 66.3243C128.687 66.3337 128.697 66.3446 128.706 66.3566C128.988 66.5152 129.259 66.6938 129.515 66.891L129.59 66.9438C129.798 67.0919 130.008 67.24 130.213 67.3948C130.382 67.5208 130.588 67.6638 130.527 67.9055C130.513 67.9575 130.479 68.0018 130.432 68.0286C130.386 68.0554 130.331 68.0625 130.279 68.0484C130.228 68.0284 130.182 67.9976 130.143 67.9582C130.04 68.1997 129.909 68.4282 129.752 68.639L129.718 68.6884C129.549 68.9267 129.38 69.1582 129.211 69.3897L129.082 69.5599C128.7 70.0705 128.31 70.5811 127.909 71.0764C127.124 72.0647 126.26 72.9874 125.326 73.8354C124.79 74.3171 124.224 74.7656 123.634 75.1784C123.321 75.3962 123.021 74.8788 123.336 74.6677C125.326 73.3265 126.88 71.4338 128.413 69.6058L128.63 69.3471C128.855 69.0816 129.082 68.8178 129.307 68.5608C129.525 68.2992 129.774 68.0655 130.048 67.8646L130.038 67.8544C129.971 67.7859 129.898 67.7222 129.822 67.6638L129.267 67.2025C129.097 67.0629 128.928 66.9234 128.759 66.7736C128.617 66.9512 128.445 67.1022 128.251 67.2195L128.232 67.2314L128.195 67.2536C128.145 67.2852 128.084 67.2962 128.026 67.2842C127.996 67.291 127.965 67.2906 127.936 67.2829C127.906 67.2752 127.879 67.2605 127.857 67.24C127.322 67.0834 126.817 66.7855 126.316 66.5455C125.768 66.2834 125.213 66.0349 124.654 65.7932C123.621 65.339 122.564 64.9413 121.488 64.6018C121.091 67.2039 120.981 69.8422 121.159 72.4687C121.21 73.2227 121.259 73.9767 121.345 74.7256C121.388 74.7675 121.426 74.8137 121.459 74.8635C121.51 74.9445 121.528 75.0426 121.508 75.1365C121.488 75.2304 121.432 75.3127 121.352 75.3656C121.147 75.5069 120.833 75.4711 120.596 75.4796H120.475L119.876 75.4898H119.406C118.39 75.4983 117.388 75.4898 116.379 75.4728L115.115 75.4541C112.877 75.4218 110.638 75.3996 108.402 75.5171C107.71 75.5545 107.021 75.6124 106.332 75.6737C105.651 75.7525 104.963 75.7565 104.281 75.6856C104.237 75.6832 104.195 75.6705 104.157 75.6487C104.12 75.6269 104.087 75.5965 104.063 75.56C104.039 75.5234 104.024 75.4817 104.019 75.4382C104.014 75.3947 104.019 75.3506 104.034 75.3094C103.801 75.3605 103.563 75.3879 103.325 75.3911H103.271C103.023 75.4196 102.773 75.4052 102.531 75.3486C102.463 75.3298 102.439 75.2192 102.511 75.1886C102.85 75.0628 103.208 74.9972 103.57 74.9945H103.665C103.728 74.9902 103.791 74.9817 103.853 74.969L103.915 74.9469L103.986 74.9196L103.954 74.8839C103.893 74.8228 103.826 74.768 103.755 74.7205C103.446 74.5022 103.064 74.4153 102.692 74.4788C102.648 74.5418 102.584 74.588 102.511 74.6099C102.442 74.6271 102.37 74.6224 102.304 74.5963C102.174 74.6544 102.051 74.7294 101.94 74.8192C101.923 74.8328 101.893 74.8192 101.906 74.792C101.974 74.6819 102.056 74.5817 102.15 74.4941C102.11 74.4543 102.082 74.4033 102.07 74.3476C102.058 74.2918 102.063 74.2339 102.084 74.181C102.136 74.0064 102.246 73.8551 102.395 73.752C102.39 73.7046 102.39 73.6565 102.395 73.6091V73.5716C102.416 73.4014 102.433 73.2465 102.448 73.0848C102.482 72.7597 102.504 72.4346 102.519 72.1095C102.548 71.4577 102.536 70.8058 102.519 70.1539C102.457 68.8335 102.322 67.5175 102.116 66.2119C102.101 66.1183 102.087 66.0247 102.074 65.9328C102.072 65.9609 102.065 65.9885 102.054 66.0145C101.972 66.1671 101.871 66.3079 101.752 66.4332C101.544 66.6713 101.307 66.8822 101.047 67.0612L100.909 67.1634C100.788 67.2458 100.674 67.3398 100.571 67.4442C100.485 67.558 100.41 67.6787 100.344 67.805C100.305 67.8728 100.249 67.9289 100.182 67.9678C100.114 68.0067 100.038 68.0269 99.9599 68.0263C99.8239 68.011 99.694 67.9612 99.5824 67.8816L99.4724 67.8118C99.4406 67.8413 99.4012 67.8612 99.3586 67.869C99.3161 67.8768 99.2722 67.8724 99.2321 67.8561L99.0628 67.7965C99.0045 67.9092 98.9329 68.0143 98.8496 68.1097C98.7652 68.1894 98.6707 68.2575 98.5686 68.3123C98.5763 68.3132 98.5835 68.3168 98.5889 68.3225C99.0019 68.7412 99.2372 69.3437 99.4657 69.8867L99.4893 69.9445C99.7077 70.4551 99.9125 70.9828 100.116 71.5053L100.322 72.0398C100.53 72.5776 100.738 73.1172 100.925 73.6635C101.033 73.9767 101.136 74.2933 101.243 74.6082C101.363 74.9181 101.467 75.2339 101.554 75.5545C101.61 75.7979 101.267 75.9664 101.141 75.7247C100.999 75.4263 100.873 75.1206 100.762 74.809C100.636 74.5015 100.509 74.1923 100.383 73.8814C100.18 73.381 99.9954 72.8721 99.8126 72.3615L99.6434 71.8645C99.4369 71.2892 99.2321 70.7122 99.0442 70.1301C98.946 69.8237 98.8496 69.519 98.7548 69.2126L98.7091 69.0629C98.6317 68.8284 98.5751 68.5874 98.5398 68.3429C98.5381 68.3385 98.5381 68.3337 98.5398 68.3293C98.4947 68.3508 98.449 68.3713 98.4027 68.3905C98.2137 68.4614 98.0162 68.5066 97.8154 68.525H97.8019C97.5869 68.5488 97.3567 68.5914 97.179 68.445C97.1433 68.4084 97.1234 68.3592 97.1234 68.308C97.1234 68.2568 97.1433 68.2076 97.179 68.171C97.3635 68.0144 97.6208 68.0723 97.856 68.0535C98.0696 68.039 98.2794 67.9896 98.4772 67.9072C98.5989 67.8474 98.7126 67.7725 98.8157 67.6842C97.9339 67.3438 97.1012 66.8332 96.5714 66.0179C96.2329 65.5073 96.1262 64.9235 96.0636 64.3158V64.2545C96.0037 63.9403 96.0501 63.6149 96.1956 63.3303C96.3649 63.0223 96.5985 62.7346 96.7965 62.4384C97.6179 61.2175 98.4355 59.9954 99.249 58.7722C99.6535 58.1663 100.038 57.5467 100.447 56.9425C100.617 56.6658 100.823 56.4134 101.06 56.1919C101.307 56.0005 101.572 55.8351 101.852 55.6983L101.994 55.6251C102.654 55.2847 103.318 54.9443 103.992 54.6243C104.127 54.5613 104.271 54.4881 104.42 54.4166C104.68 54.2763 104.951 54.1557 105.229 54.0558L105.281 54.0337C105.548 53.9209 105.82 53.822 106.097 53.7375C106.304 53.6763 106.551 53.7018 106.657 53.8856C106.835 53.7511 106.997 53.5963 107.14 53.4243C107.316 53.215 107.463 52.9818 107.575 52.7316C107.631 52.6023 107.678 52.4693 107.715 52.3333C107.736 52.2141 107.768 52.0973 107.812 51.9844C107.815 51.9783 107.82 51.9733 107.825 51.9697C107.831 51.9662 107.838 51.9643 107.845 51.9643C107.851 51.9643 107.858 51.9662 107.864 51.9697C107.87 51.9733 107.875 51.9783 107.878 51.9844C107.979 52.2125 107.917 52.5308 107.854 52.7725L107.842 52.8167C107.76 53.1192 107.623 53.4038 107.438 53.6558C107.257 53.8962 107.038 54.105 106.789 54.2737C106.908 54.6362 107.004 55.0056 107.146 55.363C107.268 55.7426 107.47 56.0912 107.739 56.3842C108.279 56.8948 109.191 56.8574 109.89 56.8625H110.002C111.591 56.8744 113.284 56.6055 114.489 55.4736C114.785 55.192 115.035 54.8651 115.23 54.5052C115.342 54.3043 115.443 54.0967 115.559 53.8958C115.597 53.8277 115.636 53.7614 115.677 53.6967C115.667 53.7035 115.656 53.7087 115.645 53.712C115.279 53.855 114.881 53.6422 114.589 53.4209L114.565 53.4039C114.279 53.1807 114.032 52.9102 113.835 52.604C113.448 52.0382 113.276 51.3515 113.35 50.6687C113.35 50.6534 113.375 50.6534 113.378 50.6687C113.483 51.2729 113.726 51.8444 114.088 52.3384ZM105.936 67.5719C105.645 67.6474 105.337 67.6283 105.056 67.5174L105.225 67.6161C105.464 67.7591 105.711 67.8953 105.946 68.045C105.958 68.0321 105.971 68.0212 105.985 68.0127C106.211 67.8884 106.463 67.7999 106.7 67.6978L107.419 67.3897L107.742 67.2485C107.562 67.1383 107.354 67.0795 107.143 67.0783C106.703 67.1123 106.346 67.4544 105.936 67.5719ZM105.786 66.6885C105.49 66.7244 105.191 66.7001 104.906 66.617C104.616 66.526 104.333 66.4151 104.059 66.2851C103.915 66.2188 103.763 66.1691 103.607 66.137C103.559 66.1289 103.509 66.1249 103.46 66.1251C103.462 66.1394 103.465 66.1537 103.469 66.1677C103.478 66.3271 103.518 66.4831 103.587 66.6272C103.688 66.7299 103.808 66.811 103.941 66.8655H103.953H103.983C104.07 66.8661 104.157 66.8752 104.242 66.8927C104.75 66.9949 105.258 67.4034 105.794 67.2604C106.239 67.1446 106.591 66.7974 107.057 66.7379C107.297 66.7161 107.538 66.7633 107.752 66.874L107.83 66.9098C107.947 66.9608 108.057 67.0085 108.169 67.0476C108.338 66.971 108.523 66.8961 108.7 66.823V66.503C108.468 66.5526 108.228 66.5526 107.996 66.503C107.863 66.472 107.736 66.4221 107.617 66.3549C107.499 66.2885 107.402 66.1847 107.279 66.1302C107.026 66.0009 106.771 66.1864 106.569 66.3294L106.532 66.3566C106.311 66.522 106.056 66.6359 105.786 66.6902V66.6885ZM105.786 65.6213C105.487 65.7053 105.172 65.7053 104.873 65.6213C104.366 65.4749 103.858 64.9949 103.313 65.143C103.333 65.3144 103.357 65.4846 103.384 65.6536C103.397 65.7353 103.411 65.8136 103.426 65.8953C103.531 65.8801 103.638 65.8801 103.743 65.8953C104.043 65.9524 104.335 66.0438 104.614 66.1677C104.904 66.2872 105.213 66.3524 105.527 66.36C105.801 66.3536 106.068 66.2634 106.29 66.1013L106.324 66.0775C106.519 65.9155 106.747 65.7967 106.991 65.7285C107.102 65.7135 107.215 65.7219 107.322 65.7533C107.43 65.7846 107.53 65.8382 107.615 65.9106L107.727 65.9855C107.947 66.1296 108.208 66.196 108.47 66.1745C108.555 66.1685 108.638 66.152 108.719 66.1251V65.4171C108.5 65.4848 108.27 65.5119 108.042 65.497C107.769 65.4807 107.504 65.4034 107.265 65.2707C107.163 65.1907 107.049 65.128 106.926 65.0852C106.788 65.0746 106.651 65.1178 106.544 65.206L106.5 65.2349C106.283 65.4 106.042 65.5309 105.786 65.623V65.6213ZM106.214 64.2494L106.187 64.2784C106.016 64.4757 105.784 64.6094 105.528 64.6579C105.235 64.6962 104.936 64.6569 104.662 64.5439C104.374 64.4333 104.103 64.2801 103.816 64.1762C103.679 64.123 103.535 64.092 103.389 64.0843C103.331 64.0854 103.274 64.097 103.22 64.1184C103.233 64.3907 103.254 64.6613 103.282 64.9337C103.646 64.743 104.129 64.9337 104.484 65.1039L104.55 65.1362C104.825 65.2859 105.135 65.3572 105.447 65.3422C105.734 65.2993 106.005 65.182 106.233 65.0017L106.297 64.9575C106.396 64.8728 106.512 64.8104 106.638 64.7746C106.763 64.7388 106.894 64.7303 107.023 64.7498C107.282 64.8128 107.478 65.0188 107.737 65.0903C107.992 65.1639 108.261 65.1715 108.519 65.1124C108.591 65.0958 108.662 65.0742 108.731 65.0477V64.3941C108.376 64.5647 107.976 64.6149 107.59 64.5371C107.304 64.4622 107.082 64.2648 106.83 64.1235C106.731 64.0552 106.611 64.0244 106.491 64.0367C106.378 64.0771 106.281 64.1521 106.212 64.2511L106.214 64.2494ZM105.52 63.492C105.252 63.5919 104.956 63.5809 104.696 63.4614C104.393 63.3337 104.134 63.1006 103.816 63.0103C103.712 62.9771 103.602 62.9695 103.494 62.9882C103.387 63.0068 103.286 63.0512 103.199 63.1176C103.199 63.3865 103.199 63.6537 103.216 63.9226C103.291 63.889 103.37 63.8661 103.452 63.8546C103.744 63.8368 104.035 63.8954 104.298 64.0248L104.323 64.035C104.601 64.1748 104.899 64.2701 105.207 64.3175C105.348 64.3319 105.491 64.3108 105.622 64.2562C105.753 64.2015 105.869 64.115 105.958 64.0043L105.979 63.9839C106.053 63.8894 106.148 63.8127 106.256 63.7597C106.363 63.7067 106.482 63.6786 106.601 63.6775C106.867 63.6946 107.087 63.8631 107.302 64.0043L107.333 64.0248C107.461 64.1172 107.609 64.1802 107.764 64.2096C107.92 64.239 108.08 64.234 108.233 64.195C108.409 64.1482 108.58 64.0814 108.741 63.9958V63.4222C108.662 63.477 108.579 63.527 108.494 63.572C108.251 63.6963 107.971 63.7219 107.71 63.6435C107.479 63.5579 107.278 63.405 107.133 63.2044L107.084 63.1448C107.005 63.0274 106.883 62.9451 106.745 62.915C106.585 62.9068 106.426 62.9478 106.29 63.0325C106.023 63.1737 105.801 63.3848 105.518 63.4869L105.52 63.492ZM103.199 62.8333C103.286 62.7684 103.386 62.7225 103.491 62.6985C103.597 62.6745 103.706 62.6728 103.812 62.6938C104.32 62.7823 104.787 63.3576 105.327 63.2044C105.56 63.1126 105.778 62.9858 105.974 62.8282C106.177 62.683 106.415 62.5949 106.664 62.5729C106.776 62.5697 106.888 62.591 106.991 62.6354C107.094 62.6798 107.186 62.7462 107.262 62.8299C107.431 63.0103 107.551 63.2316 107.802 63.3133C107.922 63.3456 108.048 63.3495 108.169 63.3247C108.291 63.2999 108.406 63.2471 108.504 63.1703L108.529 63.155C108.599 63.1108 108.67 63.0614 108.746 63.0171C108.746 62.8776 108.746 62.7329 108.746 62.5882C108.305 62.6089 107.869 62.4898 107.499 62.2478L107.456 62.224C107.251 62.0815 107.021 61.9777 106.779 61.9176C106.524 61.8953 106.269 61.9479 106.043 62.0691L105.985 62.0963C105.533 62.2955 105.12 62.4759 104.614 62.3431C104.163 62.2257 103.699 61.9142 103.223 61.8989C103.206 62.2138 103.199 62.5253 103.198 62.835L103.199 62.8333ZM108.294 62.2478C108.448 62.2793 108.605 62.2862 108.761 62.2682C108.769 62.1368 108.786 62.006 108.812 61.8768C108.804 61.8604 108.798 61.8433 108.793 61.8257C108.611 61.8535 108.425 61.8506 108.243 61.8172C107.996 61.8019 107.749 61.79 107.502 61.7798L107.301 61.7712C107.627 61.9397 107.925 62.1729 108.292 62.2495L108.294 62.2478ZM103.216 61.7372C103.5 61.7092 103.785 61.7483 104.051 61.8512C104.318 61.9679 104.599 62.0475 104.887 62.0878C105.152 62.0936 105.414 62.0303 105.647 61.904L105.75 61.8563C105.853 61.8104 105.955 61.7644 106.06 61.7236H105.938C105.032 61.7032 104.122 61.7236 103.218 61.6623C103.221 61.6929 103.22 61.7185 103.22 61.744L103.216 61.7372Z" fill="#3D005E"/>
<path fill-rule="evenodd" clip-rule="evenodd" d="M104.62 43.4159C104.539 44.9614 104.527 46.5528 104.753 48.0864C104.845 48.7933 105.075 49.4748 105.431 50.0914C105.748 50.6054 106.166 51.0499 106.658 51.3986C107.627 52.08 108.796 52.4123 109.977 52.3415C111.254 52.2454 112.467 51.7401 113.438 50.8999C113.919 50.484 114.341 50.0035 114.692 49.4719C114.867 49.2144 115.028 48.948 115.175 48.6736C115.261 48.5206 115.323 48.3545 115.357 48.1817C115.992 48.294 116.693 48.003 116.94 47.3613C117.009 47.1666 117.028 46.9572 116.994 46.7531C116.961 46.549 116.875 46.357 116.747 46.1954C116.747 46.0688 116.736 45.9424 116.715 45.8175C116.703 45.5656 116.701 45.3069 116.703 45.0618C116.731 44.3144 116.693 43.566 116.59 42.8253C116.476 42.2033 116.28 41.5994 116.007 41.0297C115.464 39.8675 114.592 38.8927 113.499 38.2281C112.358 37.5553 111.028 37.2801 109.716 37.4451C109.045 37.5269 108.394 37.731 107.795 38.0476C107.17 38.3881 106.632 38.8595 106.074 39.2918C105.789 39.4947 105.53 39.7332 105.305 40.0016C105.072 40.305 104.914 40.6605 104.847 41.0382C104.716 41.8261 104.64 42.6224 104.62 43.421V43.4159Z" fill="white"/>
<path fill-rule="evenodd" clip-rule="evenodd" d="M113.572 35.7704C113.583 35.7991 113.593 35.8287 113.599 35.8589C113.638 36.0231 113.621 36.1956 113.552 36.3491C113.634 36.4559 113.684 36.5844 113.696 36.7191C113.707 36.8538 113.679 36.989 113.616 37.1082C113.587 37.1644 113.551 37.2164 113.509 37.2631C113.548 37.3006 113.58 37.3443 113.604 37.3925C113.617 37.4173 113.629 37.4429 113.64 37.4691C113.801 37.5322 113.959 37.6037 114.114 37.6835C114.156 37.5576 114.237 37.4485 114.345 37.3721C114.418 37.3168 114.502 37.2773 114.591 37.2559C114.679 37.2345 114.772 37.2318 114.862 37.2478C114.954 37.1089 115.094 37.009 115.254 36.967H115.271C115.381 36.81 115.517 36.673 115.672 36.5619C115.906 36.3917 116.266 36.2708 116.503 36.4938C116.954 36.9176 116.717 37.7091 116.146 37.8742L116.104 37.8844C116.11 38.0092 116.081 38.1332 116.021 38.2428C115.962 38.3523 115.873 38.4433 115.765 38.5056L115.679 38.5652C115.677 38.6291 115.66 38.6916 115.631 38.7484C115.602 38.8052 115.56 38.8548 115.51 38.8937C115.552 38.9482 115.591 39.0026 115.63 39.0639C115.712 39.0494 115.796 39.0541 115.876 39.0777C115.956 39.1014 116.029 39.1432 116.09 39.2001C116.142 39.114 116.21 39.0394 116.291 38.9809C116.372 38.9223 116.464 38.8811 116.561 38.8597C116.642 38.8377 116.726 38.8343 116.809 38.8496C116.891 38.865 116.969 38.8986 117.037 38.9482H117.069C117.191 38.8866 117.33 38.8686 117.463 38.8971C117.574 38.9222 117.676 38.9775 117.758 39.0571C117.876 39.0003 118.01 38.9871 118.137 39.0197C118.49 39.1048 118.716 39.5303 118.386 39.7856C118.359 39.8049 118.327 39.817 118.294 39.8209C118.262 39.8248 118.228 39.8202 118.198 39.8077C118.144 39.9107 118.052 39.9887 117.942 40.0256L117.813 40.0698C117.771 40.1985 117.685 40.3084 117.571 40.3813C117.504 40.4258 117.427 40.4554 117.347 40.4683C117.268 40.4812 117.186 40.4771 117.108 40.4562C117.026 40.6002 116.893 40.7078 116.735 40.7575C116.703 40.7677 116.669 40.7745 116.637 40.7813C116.607 40.8222 116.571 40.8593 116.532 40.8919C116.608 40.9729 116.662 41.0727 116.688 41.1813C116.752 41.211 116.809 41.2525 116.857 41.3038C116.922 41.3771 116.962 41.4687 116.972 41.5659C117.009 41.5707 117.046 41.5781 117.082 41.5881C117.162 41.5042 117.263 41.4433 117.374 41.4116C117.486 41.3799 117.603 41.3785 117.715 41.4076C117.835 41.4352 117.945 41.4939 118.035 41.5778C118.121 41.5468 118.214 41.5382 118.304 41.5529C118.394 41.5676 118.479 41.6051 118.551 41.662C118.623 41.7188 118.679 41.793 118.715 41.8778C118.751 41.9625 118.764 42.0549 118.755 42.1463C118.76 42.1562 118.764 42.1665 118.768 42.177C118.78 42.2017 118.789 42.2273 118.797 42.2536C118.813 42.241 118.833 42.2342 118.854 42.2342C118.874 42.2342 118.894 42.241 118.91 42.2536C118.978 42.3036 119.029 42.3739 119.055 42.4546C119.081 42.5352 119.082 42.6221 119.056 42.7029C119.016 42.799 118.942 42.8769 118.848 42.9217C118.754 42.9666 118.648 42.9753 118.548 42.9463C118.435 43.0151 118.31 43.0619 118.179 43.0842C118.134 43.1923 118.067 43.2898 117.982 43.3706C117.898 43.4514 117.798 43.5139 117.688 43.5539C117.596 43.585 117.499 43.5952 117.402 43.5837C117.306 43.5722 117.213 43.5394 117.131 43.4876C117.035 43.5626 116.924 43.6155 116.805 43.6424H116.781C116.781 43.6816 116.771 43.7173 116.764 43.7531C116.757 43.7888 116.764 43.828 116.764 43.8654C116.811 43.8763 116.858 43.8911 116.903 43.9097C116.954 43.9329 117.002 43.962 117.047 43.9965C117.107 43.9758 117.17 43.9696 117.233 43.9785C117.296 43.9874 117.355 44.011 117.407 44.0475C117.46 44.0856 117.504 44.1352 117.535 44.1927C117.567 44.2501 117.585 44.314 117.588 44.3794C117.627 44.4076 117.661 44.4414 117.69 44.4799C117.877 44.4936 118.06 44.5451 118.226 44.6313C118.334 44.6852 118.422 44.771 118.48 44.8771C118.537 44.9833 118.561 45.1045 118.547 45.2246C118.534 45.3446 118.484 45.4576 118.404 45.5481C118.325 45.6387 118.22 45.7025 118.103 45.7309C117.764 45.8194 117.416 45.6764 117.119 45.5079L117.091 45.4909L116.891 45.3751L116.906 45.3871C117.189 45.6179 117.386 45.9382 117.465 46.296C117.549 46.6594 117.533 47.0391 117.417 47.3938C117.498 47.4146 117.572 47.4549 117.634 47.5113C117.695 47.5677 117.742 47.6384 117.769 47.7172C117.855 47.7795 117.925 47.8616 117.973 47.9566C118.021 48.0517 118.046 48.1569 118.045 48.2635C118.04 48.341 118.02 48.4167 117.986 48.4864C117.952 48.556 117.905 48.6182 117.847 48.6695C117.789 48.7207 117.721 48.7599 117.648 48.7849C117.575 48.8098 117.498 48.8201 117.421 48.815C117.296 48.8254 117.17 48.8092 117.051 48.7676C116.932 48.726 116.824 48.6598 116.732 48.5733C116.683 48.5203 116.644 48.4593 116.615 48.3929C116.465 48.4689 116.303 48.5179 116.136 48.5376C115.897 48.5559 115.656 48.5205 115.432 48.4337C115.385 48.5869 115.328 48.737 115.263 48.8831C115.14 49.1779 114.985 49.4577 114.799 49.7171C114.616 49.9658 114.416 50.2012 114.2 50.4217L114.185 50.4371C114.015 50.6226 113.719 50.9834 113.445 50.9085C113.408 50.8975 113.376 50.8751 113.352 50.8446C113.329 50.814 113.316 50.7769 113.315 50.7383C113.316 50.6775 113.332 50.618 113.362 50.565C113.391 50.5119 113.433 50.4668 113.484 50.4337L113.541 50.386C113.645 50.2992 113.746 50.2158 113.843 50.1154C114.058 49.9076 114.259 49.6852 114.444 49.4499C114.625 49.2201 114.799 48.9886 114.965 48.7469C115.053 48.6193 115.134 48.4763 115.226 48.3401C115.117 48.2891 115.031 48.1996 114.984 48.0888C114.936 47.9779 114.932 47.8535 114.97 47.7393C114.983 47.6936 115.011 47.6534 115.049 47.6246C115.086 47.5958 115.132 47.5799 115.18 47.5793C115.25 47.5771 115.319 47.5857 115.386 47.6048C115.451 47.6379 115.511 47.6797 115.564 47.7291C115.611 47.7669 115.663 47.7978 115.718 47.821C115.87 47.8799 116.036 47.8865 116.192 47.8397C116.571 47.7342 116.783 47.3172 116.835 46.9512C116.869 46.7566 116.859 46.5568 116.807 46.3664C116.754 46.1759 116.661 45.9996 116.532 45.85C116.377 45.7064 116.187 45.605 115.982 45.5556L115.945 45.5453C115.816 45.506 115.684 45.477 115.55 45.4585L115.513 45.4739C115.341 45.5323 115.153 45.5232 114.987 45.4483C114.869 45.5176 114.756 45.5944 114.648 45.6781C114.55 45.7564 114.361 45.7377 114.322 45.6134C114.322 45.5419 114.339 45.4705 114.344 45.4007C114.367 45.1442 114.367 44.8861 114.344 44.6296V44.5939V44.5547C114.327 44.4091 114.301 44.2647 114.266 44.1224C114.223 43.9435 114.155 43.7716 114.064 43.6118C114.013 43.4327 113.928 43.2648 113.816 43.1165C113.816 43.0944 113.8 43.0723 113.794 43.0501C113.765 42.9921 113.755 42.9268 113.765 42.8629C113.775 42.799 113.804 42.7396 113.848 42.6927C114.016 42.5723 114.199 42.4755 114.393 42.405C114.747 42.2348 115.099 42.0289 115.466 41.8825C115.592 41.8288 115.727 41.8005 115.864 41.7991C115.874 41.7361 115.881 41.6732 115.887 41.6085V41.5319C115.824 41.5404 115.759 41.5298 115.701 41.5013C115.628 41.5031 115.556 41.4869 115.491 41.4543C115.426 41.4217 115.37 41.3735 115.327 41.314C115.144 41.0473 114.984 40.7654 114.848 40.4715C114.828 40.5191 114.801 40.5638 114.769 40.6043C114.753 40.6307 114.735 40.6553 114.714 40.6775C114.814 40.8783 114.904 41.0825 114.983 41.2919C114.987 41.3486 114.987 41.4054 114.983 41.4621C114.963 41.8791 114.567 41.9557 114.247 42.0714L114.213 42.0834C113.904 42.2008 113.591 42.3914 113.266 42.2229C113.245 42.2124 113.225 42.2004 113.206 42.1872C113.095 42.068 112.979 41.954 112.868 41.8468C112.699 41.5898 112.519 41.3362 112.336 41.0842C112.318 41.0485 112.302 41.0128 112.286 40.977C112.191 40.7558 112.098 40.4664 112.23 40.2468C112.32 40.0995 112.43 39.9659 112.558 39.8503C112.585 39.8426 112.609 39.8265 112.626 39.8043C112.644 39.7822 112.665 39.7583 112.687 39.7362L112.726 39.7022L112.768 39.6528C112.977 39.4336 113.25 39.2885 113.548 39.2392C113.635 39.2879 113.717 39.3449 113.794 39.4094L113.853 39.3822C113.921 39.3376 113.994 39.3005 114.07 39.2716C114.087 39.2324 114.114 39.198 114.147 39.1711C114.13 39.1246 114.117 39.0768 114.108 39.0282L114.044 38.9363L113.866 38.8256C113.619 38.6707 113.387 38.4852 113.144 38.3235H113.134C113.003 38.2622 112.876 38.1942 112.749 38.1261L112.7 38.1669C112.692 38.1741 112.683 38.1804 112.673 38.1856C112.715 38.2163 112.756 38.2469 112.795 38.2793C112.817 38.2962 112.835 38.3178 112.849 38.3424C112.862 38.3671 112.869 38.3943 112.871 38.4222C112.959 38.4994 113.019 38.6027 113.044 38.7169C113.068 38.8312 113.056 38.9505 113.008 39.0571C112.991 39.0963 112.971 39.1339 112.947 39.1694C112.749 39.2867 112.572 39.4369 112.424 39.6137C112.261 39.7165 112.091 39.8091 111.917 39.8911C111.818 39.9592 111.719 40.0205 111.619 40.0783C111.562 40.1126 111.495 40.1275 111.429 40.1209C111.32 40.17 111.206 40.2104 111.091 40.2417C110.825 40.3006 110.549 40.2936 110.287 40.2213C110.009 40.1583 109.733 40.0834 109.459 40C109.452 39.989 109.443 39.9796 109.432 39.9728C109.089 39.82 108.723 39.7279 108.349 39.7005C108.274 39.6506 108.217 39.5778 108.187 39.4929C108.156 39.408 108.154 39.3155 108.179 39.229C108.285 38.9401 108.43 38.6674 108.611 38.4188C108.688 38.2994 108.789 38.1974 108.907 38.1195C109.025 38.0415 109.159 37.9892 109.298 37.9661C109.361 37.9552 109.425 37.9483 109.489 37.9457C109.492 37.8656 109.504 37.7862 109.525 37.7091L109.293 37.7176C109.075 37.7295 108.855 37.7465 108.636 37.772C108.629 37.807 108.616 37.8404 108.597 37.8708V37.8878C108.514 38.1369 108.396 38.373 108.247 38.589C108.181 38.6758 108.112 38.7592 108.039 38.8426C107.933 38.996 107.8 39.1286 107.646 39.2341C107.536 39.4059 107.392 39.553 107.223 39.6664C106.802 39.9524 106.267 40.0068 105.774 39.9643C105.763 39.9661 105.752 39.9661 105.74 39.9643C105.657 40.0562 105.571 40.1447 105.481 40.2298C105.383 40.6485 105.278 41.0672 105.185 41.4876C105.057 42.0783 104.947 42.6791 104.876 43.2748C104.733 44.489 104.717 45.715 104.828 46.9325C104.926 48.0423 105.145 49.1571 105.751 50.1069C106.274 50.9023 107.07 51.477 107.986 51.7221C108.498 51.8602 109.033 51.8817 109.554 51.7851C109.813 51.7392 110.066 51.6627 110.307 51.557C110.571 51.4362 110.803 51.2643 111.064 51.1366C111.133 51.0982 111.213 51.083 111.292 51.0934C111.371 51.1038 111.444 51.1392 111.502 51.1945C111.558 51.2515 111.594 51.3256 111.604 51.4053C111.615 51.4851 111.598 51.5659 111.558 51.6353C111.219 52.1085 110.62 52.374 110.068 52.5289C109.512 52.6817 108.931 52.7165 108.361 52.631C107.277 52.4497 106.299 51.8697 105.617 51.0038C105.266 50.5887 104.975 50.1257 104.754 49.6286C104.509 49.0189 104.353 48.3768 104.292 47.7223C104.142 46.4291 104.142 45.1228 104.292 43.8297C104.373 43.0971 104.506 42.3713 104.691 41.6578C104.805 41.2181 104.951 40.7874 105.128 40.3694C105.104 40.3591 105.082 40.3432 105.065 40.3232C105.048 40.3031 105.036 40.2793 105.03 40.2536C104.988 40.2375 104.952 40.2075 104.93 40.1685C104.907 40.1295 104.898 40.0839 104.904 40.0392V40.012C104.859 40.0189 104.813 40.0142 104.771 39.9983C104.716 39.9758 104.669 39.9359 104.639 39.8846C104.608 39.8334 104.595 39.7735 104.601 39.7141C104.551 39.7044 104.505 39.6819 104.466 39.6489C104.427 39.6158 104.397 39.5732 104.38 39.5252C104.345 39.5265 104.311 39.5204 104.279 39.5074C104.246 39.4944 104.217 39.4747 104.194 39.4496C104.17 39.4245 104.151 39.3946 104.139 39.3619C104.128 39.3292 104.123 39.2943 104.126 39.2596C104.161 38.9686 104.4 38.5022 104.766 38.6571C104.796 38.6708 104.825 38.6873 104.852 38.7065C104.921 38.6644 105.003 38.6459 105.083 38.6539C105.164 38.6619 105.24 38.6958 105.3 38.7507C105.318 38.7682 105.333 38.7869 105.348 38.8069C105.378 38.8044 105.408 38.8044 105.437 38.8069C105.457 38.8084 105.475 38.8124 105.493 38.8188C105.527 38.8078 105.562 38.8059 105.596 38.8134C105.631 38.8209 105.662 38.8375 105.688 38.8614C105.763 38.7621 105.85 38.6724 105.947 38.5941C105.97 38.5231 105.985 38.4493 105.989 38.3746C105.965 38.3339 105.951 38.288 105.947 38.2406C105.944 38.1933 105.952 38.1459 105.971 38.1022L105.957 38.0886C105.912 38.0408 105.879 37.9837 105.858 37.9214C105.838 37.859 105.831 37.793 105.839 37.7278C105.748 37.6996 105.668 37.643 105.611 37.5662C105.554 37.4894 105.523 37.3964 105.522 37.3006L105.485 37.2818C105.434 37.2519 105.391 37.2119 105.356 37.1644C105.323 37.1519 105.292 37.1365 105.261 37.1185C105.142 37.0377 105.054 36.9172 105.014 36.778C104.886 36.3168 105.217 35.6751 105.744 35.7211C105.841 35.724 105.934 35.7556 106.013 35.8119C106.092 35.8683 106.153 35.9468 106.187 36.0376C106.247 36.046 106.303 36.0686 106.352 36.1036C106.401 36.1385 106.441 36.1848 106.468 36.2385C106.494 36.2935 106.517 36.3504 106.534 36.4087C106.595 36.4141 106.653 36.4318 106.706 36.4607C106.76 36.4897 106.807 36.5293 106.844 36.5771C106.882 36.6249 106.909 36.6799 106.925 36.7387C106.941 36.7976 106.944 36.859 106.935 36.9193C106.957 36.943 106.974 36.97 106.986 36.9993C107.08 37.0255 107.163 37.0802 107.225 37.1559C107.266 37.2089 107.303 37.2659 107.333 37.3261C107.399 37.3872 107.447 37.4647 107.474 37.5508C107.518 37.5369 107.563 37.5289 107.609 37.5269C107.62 37.4413 107.649 37.3589 107.694 37.2853C107.639 37.2337 107.6 37.1678 107.58 37.095C107.561 37.0223 107.562 36.9455 107.584 36.8734C107.616 36.7963 107.655 36.7227 107.702 36.6538C107.629 36.6057 107.573 36.536 107.54 36.4543C107.508 36.3727 107.502 36.283 107.523 36.1976C107.483 36.1422 107.453 36.0799 107.435 36.0138C107.416 35.9475 107.415 35.8773 107.432 35.8105C107.449 35.7437 107.484 35.6829 107.533 35.6343L107.558 35.6121C107.611 35.5611 107.677 35.5249 107.748 35.507C107.819 35.4891 107.894 35.4901 107.964 35.51C108.049 35.5355 108.127 35.5776 108.195 35.6341C108.263 35.6905 108.32 35.76 108.361 35.8385C108.462 35.8865 108.547 35.9642 108.604 36.0615C108.672 36.1762 108.705 36.3079 108.701 36.441C108.742 36.4665 108.781 36.4962 108.816 36.5295C108.904 36.6171 108.963 36.7301 108.985 36.8529C109.034 36.873 109.08 36.8993 109.122 36.9312C109.172 36.9664 109.206 37.0195 109.217 37.0793L109.386 37.0623C109.407 36.8548 109.503 36.6622 109.655 36.521C109.62 36.4019 109.598 36.2792 109.589 36.1551C109.556 36.1398 109.529 36.1149 109.51 36.0836C109.476 36.0447 109.454 35.9965 109.448 35.9453C109.442 35.894 109.451 35.842 109.474 35.796C109.492 35.762 109.517 35.7324 109.547 35.7091L109.53 35.6836C109.467 35.5797 109.436 35.4588 109.443 35.3371C109.45 35.2154 109.494 35.0987 109.569 35.0028C109.562 34.9826 109.559 34.9612 109.561 34.9398C109.563 34.9185 109.569 34.8978 109.579 34.8791C109.589 34.8603 109.603 34.8439 109.62 34.8309C109.637 34.8179 109.657 34.8086 109.677 34.8037C109.767 34.7727 109.859 34.7522 109.953 34.7424C109.999 34.7304 110.046 34.7235 110.094 34.722C110.283 34.7121 110.469 34.7705 110.619 34.8866C110.77 35.0027 110.874 35.1688 110.913 35.3551C110.93 35.4468 110.93 35.5409 110.913 35.6326C110.937 35.6466 110.958 35.6659 110.975 35.6891C110.991 35.7122 111.002 35.7387 111.007 35.7666C111.012 35.7945 111.011 35.8232 111.004 35.8506C110.997 35.878 110.983 35.9035 110.965 35.9253C110.979 35.9733 110.989 36.0222 110.996 36.0717C111.023 36.0917 111.045 36.1174 111.061 36.1471C111.077 36.1768 111.086 36.2097 111.088 36.2434C111.09 36.2771 111.084 36.3108 111.071 36.342C111.059 36.3733 111.039 36.4013 111.014 36.424V36.4512H111.028C111.127 36.4867 111.213 36.5507 111.275 36.6351C111.304 36.6769 111.328 36.7228 111.344 36.7712C111.461 36.778 111.578 36.778 111.695 36.7712C111.697 36.6665 111.734 36.5654 111.799 36.4836C111.864 36.4018 111.954 36.3438 112.055 36.3185C112.037 36.2445 112.033 36.1676 112.044 36.0921C112.056 36.0134 112.086 35.9384 112.13 35.8721C112.174 35.8058 112.232 35.7496 112.299 35.7074C112.263 35.6016 112.263 35.4865 112.299 35.3806C112.335 35.2696 112.404 35.1726 112.497 35.1032C112.468 35.0144 112.47 34.9181 112.504 34.831C112.538 34.744 112.602 34.6716 112.683 34.6266C112.75 34.5859 112.825 34.5604 112.903 34.5517C113.009 34.5236 113.119 34.5219 113.225 34.5467C113.331 34.5715 113.429 34.6221 113.511 34.694C113.593 34.7659 113.657 34.8569 113.695 34.9592C113.734 35.0614 113.748 35.1716 113.734 35.2802C113.72 35.4544 113.664 35.6225 113.572 35.7704ZM116.246 46.3623C116.192 46.3913 116.158 46.4355 116.102 46.4628C116.019 46.5036 115.933 46.5376 115.859 46.5836C115.704 46.6737 115.562 46.7855 115.439 46.9155C115.254 47.1027 114.977 46.7759 115.209 46.6023C115.371 46.4737 115.558 46.3783 115.757 46.3215C115.842 46.2992 115.929 46.2844 116.016 46.2772C116.096 46.2762 116.175 46.2925 116.248 46.3249C116.25 46.3252 116.253 46.326 116.255 46.3273C116.257 46.3285 116.259 46.3302 116.26 46.3322C116.262 46.3342 116.263 46.3364 116.263 46.3388C116.264 46.3412 116.264 46.3437 116.264 46.3462C116.264 46.3486 116.263 46.351 116.262 46.3531C116.26 46.3553 116.259 46.3572 116.257 46.3587C116.255 46.3602 116.252 46.3613 116.25 46.3619C116.248 46.3625 116.245 46.3627 116.243 46.3623H116.246ZM115.415 43.8773C115.315 43.9743 115.468 44.1275 115.567 44.0305L115.578 44.0186C115.633 43.9679 115.697 43.9286 115.767 43.9029C115.793 43.8932 115.814 43.8746 115.826 43.8505C115.839 43.8264 115.843 43.7984 115.837 43.7718C115.829 43.7444 115.81 43.7213 115.786 43.7073C115.761 43.6933 115.732 43.6896 115.705 43.6969C115.595 43.7355 115.496 43.797 115.412 43.8773H115.415ZM113.171 40.3387C113.238 40.4613 113.423 40.3524 113.355 40.2298V40.2196C113.326 40.1683 113.309 40.1112 113.304 40.0523C113.3 39.9934 113.309 39.9343 113.33 39.8792C113.379 39.7566 113.2 39.6511 113.142 39.7754C113.103 39.8651 113.085 39.9627 113.09 40.0605C113.095 40.1582 113.123 40.2535 113.171 40.3387ZM111.581 38.218C111.568 38.2849 111.536 38.3466 111.489 38.3967C111.443 38.4468 111.384 38.4833 111.319 38.5022C111.189 38.5482 111.245 38.7558 111.377 38.7099C111.48 38.6801 111.573 38.6227 111.646 38.5439C111.719 38.465 111.769 38.3677 111.791 38.2622C111.817 38.1261 111.609 38.0682 111.583 38.2044V38.218H111.581ZM108.21 38.0342L108.237 37.9967H108.2L108.21 38.0342Z" fill="#3D005E"/>
<path fill-rule="evenodd" clip-rule="evenodd" d="M109.509 48.6792C109.79 48.7779 110.17 48.9106 110.28 49.2221C110.321 49.3693 110.312 49.526 110.254 49.6671C110.195 49.8082 110.092 49.9254 109.959 50C109.665 50.1542 109.342 50.2452 109.011 50.2672L108.872 50.2842C108.483 50.3335 108.089 50.3404 107.698 50.3046C107.342 50.2706 106.939 50.228 106.645 50.0051C106.518 49.9087 106.424 49.7757 106.374 49.6238C106.322 49.6238 106.271 49.6085 106.22 49.5983C106.2 49.5943 106.183 49.5837 106.17 49.5682C106.158 49.5527 106.151 49.5332 106.151 49.5132C106.151 49.4931 106.158 49.4737 106.17 49.4582C106.183 49.4427 106.2 49.432 106.22 49.4281L106.342 49.4128C106.343 49.3462 106.356 49.2805 106.381 49.2187C106.508 48.897 106.889 48.6911 107.193 48.5719L107.224 48.5617C107.548 48.4231 107.911 48.405 108.248 48.5107C108.675 48.4764 109.105 48.5338 109.509 48.6792ZM108.276 49.5898C108.281 49.7074 108.268 49.825 108.238 49.9387C108.433 49.9384 108.628 49.9271 108.821 49.9047C108.808 49.8821 108.801 49.8561 108.801 49.8298C108.801 49.7396 108.801 49.6476 108.813 49.5574C108.637 49.5608 108.459 49.5727 108.28 49.5813L108.276 49.5898ZM107.544 49.617C107.554 49.7106 107.564 49.8059 107.571 49.8995L107.65 49.9081L107.765 49.9166C107.855 49.9166 107.945 49.9302 108.036 49.9336C108.037 49.8396 108.051 49.7461 108.078 49.6561L108.095 49.5983L107.544 49.617ZM107.224 49.617H107.151C107.031 49.617 106.906 49.6255 106.782 49.6289C106.824 49.676 106.874 49.7142 106.931 49.7413C107.062 49.8047 107.203 49.8466 107.347 49.8655C107.347 49.7804 107.357 49.6953 107.366 49.6119L107.224 49.617ZM109.153 49.5302H109.079C109.079 49.6289 109.096 49.7259 109.106 49.8247C109.107 49.836 109.107 49.8474 109.106 49.8587C109.243 49.8332 109.38 49.8008 109.514 49.7617C109.647 49.7225 109.927 49.5915 109.937 49.4213C109.679 49.48 109.417 49.5165 109.153 49.5302ZM107.532 48.8494C107.532 49.0315 107.523 49.2119 107.532 49.394C107.531 49.4031 107.531 49.4122 107.532 49.4213C107.701 49.4213 107.887 49.4213 108.063 49.4213H108.138C108.178 49.2068 108.209 48.9906 108.231 48.7728C107.996 48.7809 107.763 48.8065 107.532 48.8494ZM106.855 49.1728C106.781 49.2302 106.731 49.3124 106.713 49.4042C106.863 49.4042 107.012 49.4179 107.158 49.4196H107.391C107.407 49.2374 107.423 49.0536 107.444 48.8715C107.227 48.9241 107.025 49.0247 106.851 49.166L106.855 49.1728ZM108.298 48.7609H108.278C108.29 48.977 108.295 49.1932 108.288 49.4094L108.827 49.3974L108.837 49.2272C108.835 49.0902 108.85 48.9536 108.882 48.8204C108.715 48.7781 108.546 48.7474 108.375 48.7285C108.352 48.7472 108.324 48.7564 108.295 48.7541L108.298 48.7609ZM109.048 49.2221V49.28C109.048 49.3174 109.057 49.3549 109.062 49.3923C109.35 49.3705 109.638 49.3665 109.927 49.3804C109.92 49.3515 109.907 49.3243 109.889 49.3004C109.778 49.1302 109.509 49.0264 109.307 48.9515L109.223 48.9209C109.145 48.8936 109.067 48.8681 108.989 48.846C109.02 48.9669 109.038 49.0906 109.045 49.2153L109.048 49.2221ZM107.44 46.0393C106.068 46.2776 106.779 48.6553 108.532 47.3499C108.74 47.1797 108.488 46.8086 108.263 46.9533C108.021 47.1405 107.528 47.5541 107.186 47.1933C106.895 46.7831 107.307 46.3984 107.577 46.2333C107.647 46.1754 107.588 46.0069 107.437 46.0325L107.44 46.0393ZM111.614 44.9551C111.668 45.1093 111.69 45.2727 111.68 45.4358C111.669 45.5988 111.627 45.7581 111.554 45.9042C111.482 46.0504 111.381 46.1804 111.257 46.2866C111.134 46.3928 110.99 46.4731 110.836 46.5227C110.14 46.7388 109.284 46.5703 108.842 45.961C108.639 45.6771 108.545 45.3294 108.576 44.9813C108.607 44.6332 108.761 44.308 109.011 44.0649C109.553 43.5543 110.502 43.5543 110.886 44.2351C111.052 44.2934 111.202 44.3875 111.327 44.5107C111.453 44.6339 111.549 44.7833 111.611 44.9483L111.614 44.9551ZM111.565 44.07C111.553 44.082 111.538 44.0897 111.521 44.0919C111.505 44.094 111.488 44.0905 111.474 44.0819C111.368 44.0112 111.278 43.919 111.21 43.8113C111.11 43.6954 110.985 43.604 110.844 43.5441C110.506 43.3892 110.138 43.4504 109.813 43.3007C109.532 43.1713 109.644 42.7645 109.893 42.6828C110.331 42.5398 110.92 42.819 111.247 43.1083C111.452 43.2887 111.804 43.7892 111.562 44.0632L111.565 44.07ZM107.085 42.9756C107.098 43.0079 107.098 43.059 107.06 43.076C107.021 43.093 106.912 43.1032 106.922 43.076C106.804 43.0514 106.684 43.0343 106.564 43.0249C106.41 43.0266 106.258 43.0572 106.115 43.1151C105.983 43.1678 105.862 43.2433 105.756 43.3381C105.629 43.4538 105.56 43.6292 105.418 43.716C105.377 43.7388 105.33 43.7505 105.283 43.7501C105.236 43.7496 105.19 43.737 105.149 43.7134C105.108 43.6898 105.074 43.656 105.05 43.6153C105.026 43.5746 105.013 43.5284 105.012 43.4811C105 43.2377 105.216 43.0368 105.399 42.9007L105.418 42.8854C105.588 42.7603 105.785 42.6769 105.993 42.642C106.201 42.6022 106.416 42.6086 106.621 42.6607C106.767 42.7049 107.014 42.8071 107.082 42.9688L107.085 42.9756ZM107.085 44.4172C107.086 44.4234 107.086 44.4297 107.085 44.4359C107.264 44.6255 107.375 44.8689 107.403 45.1287C107.424 45.4426 107.331 45.7536 107.142 46.004C106.952 46.2544 106.679 46.4272 106.372 46.4903C106.071 46.5374 105.762 46.482 105.495 46.3328C105.229 46.1836 105.019 45.9491 104.9 45.6665C104.792 45.3728 104.781 45.0516 104.871 44.7516C104.96 44.4515 105.145 44.189 105.396 44.0036C105.539 43.9058 105.701 43.8375 105.871 43.8024C106.041 43.7674 106.216 43.7663 106.386 43.7994C106.546 43.8282 106.696 43.9002 106.819 44.0078C106.942 44.1154 107.034 44.2545 107.085 44.4104V44.4172ZM109.092 45.5712C109.348 46.0954 109.91 46.252 110.446 46.2044C110.983 46.1567 111.37 45.7959 111.325 45.2393C111.312 45.0932 111.269 44.9513 111.199 44.8227C111.129 44.6941 111.033 44.5815 110.917 44.4921C110.906 44.5051 110.893 44.5158 110.878 44.5233C110.862 44.5309 110.846 44.5352 110.829 44.536C110.812 44.5368 110.795 44.5341 110.78 44.528C110.764 44.5219 110.749 44.5126 110.737 44.5006C110.399 44.2198 109.84 44.0887 109.456 44.3219C109.253 44.4462 109.102 44.6425 109.035 44.8723C108.968 45.1021 108.988 45.3489 109.092 45.5644V45.5712ZM105.259 45.3227C105.286 45.5342 105.386 45.7293 105.542 45.8739C105.698 46.0185 105.899 46.1034 106.111 46.1137C106.323 46.1241 106.532 46.0592 106.701 45.9305C106.87 45.8017 106.988 45.6173 107.036 45.4095C107.068 45.2511 107.065 45.0874 107.027 44.9303C106.989 44.7732 106.917 44.6265 106.816 44.5006C106.673 44.3977 106.509 44.3301 106.336 44.3032C106.163 44.2762 105.985 44.2908 105.819 44.3457C105.635 44.4262 105.481 44.5638 105.38 44.7383C105.28 44.9129 105.237 45.1152 105.259 45.3159V45.3227ZM106.213 45.2325C106.225 45.3007 106.212 45.371 106.177 45.4304C106.141 45.4898 106.086 45.5344 106.02 45.5559C105.989 45.5642 105.957 45.5652 105.925 45.559C105.894 45.5527 105.864 45.5393 105.838 45.5198C105.813 45.5003 105.792 45.4751 105.777 45.4463C105.763 45.4174 105.755 45.3857 105.755 45.3533C105.755 45.2903 105.778 45.2296 105.821 45.1831C105.821 45.1831 105.849 45.1457 105.853 45.144L105.866 45.1236V45.1048L105.882 45.0725L105.897 45.0419C105.902 45.0253 105.911 45.01 105.923 44.9972C105.935 44.9844 105.949 44.9742 105.965 44.9675C105.981 44.9607 105.999 44.9574 106.016 44.958C106.033 44.9585 106.05 44.9627 106.066 44.9704C106.109 44.9985 106.144 45.0363 106.17 45.0806C106.195 45.1249 106.21 45.1746 106.213 45.2257V45.2325ZM110.03 45.4384C110.002 45.4852 109.957 45.5202 109.906 45.5374C109.854 45.5545 109.798 45.5526 109.747 45.5321C109.698 45.5097 109.657 45.4706 109.633 45.4215C109.609 45.3724 109.603 45.3164 109.615 45.2631C109.625 45.2164 109.646 45.1727 109.676 45.1355L109.686 45.1168C109.706 45.0763 109.731 45.0386 109.761 45.0044C109.792 44.9771 109.831 44.9621 109.873 44.9621C109.914 44.9621 109.953 44.9771 109.984 45.0044C110.034 45.0627 110.065 45.1346 110.073 45.2109C110.081 45.2872 110.066 45.3641 110.03 45.4316V45.4384Z" fill="#3D005E"/>
<path fill-rule="evenodd" clip-rule="evenodd" d="M97.6285 55.2676L94.4922 58.7874L98.1109 58.9083L97.6285 55.2676Z" fill="#3D005E"/>
</svg>
