<svg width="155" height="36" viewBox="0 0 155 36" fill="none" xmlns="http://www.w3.org/2000/svg">
<g clip-path="url(#clip0_292_29197)">
<path fill-rule="evenodd" clip-rule="evenodd" d="M13.6576 11.6032C11.8215 10.9398 10.5323 10.3929 9.86685 9.88348C9.20352 9.37611 8.85209 8.67326 8.85209 7.69593C8.85209 5.8203 10.0249 4.76603 11.938 4.76603C13.851 4.76603 15.2193 6.01576 15.2588 8.16588H20.6902C20.4948 2.85297 17.253 0 12.0565 0C9.39898 0 7.29045 0.742353 5.72672 2.26657C4.20251 3.79078 3.42065 5.74336 3.42065 8.16588C3.42065 12.541 5.95962 14.8076 11.2746 16.5272C14.7514 17.6605 16.1197 18.7148 16.1197 20.5509C16.1197 22.387 14.7514 23.6368 12.5244 23.6368C9.78991 23.6368 8.34472 22.2685 8.22619 19.4946H2.79682C2.95278 24.847 6.35263 28.3633 12.4474 28.3633C15.1049 28.3633 17.2925 27.6209 18.9726 26.1757C20.6923 24.691 21.5511 22.6594 21.5511 20.081C21.5511 15.9013 19.4031 13.5183 13.6597 11.6032H13.6576ZM34.4414 18.6753C34.4414 21.7611 33.0358 23.3644 31.0416 23.3644C29.166 23.3644 28.2281 22.1541 28.2281 19.769V7.67306H23.1481V20.9003C23.1481 25.4708 25.3357 28.2843 29.5174 28.2843C31.9794 28.2843 33.697 27.2695 34.7534 25.2754L35.1443 27.8538H39.482V7.67306H34.4414V18.6732V18.6753ZM82.9439 7.619C79.935 7.619 77.4751 8.59632 75.5204 10.5094C73.5678 12.4245 72.5905 14.8845 72.5905 17.9329C72.5905 19.3095 72.7943 20.5717 73.1915 21.7195L79.0076 21.7091C78.2132 20.6736 77.8244 19.4155 77.8244 17.9308C77.8244 16.2902 78.2943 14.9219 79.2696 13.8677C80.2469 12.7739 81.4571 12.227 82.9814 12.227C86.0672 12.227 88.0988 14.61 88.0988 17.9308C88.0988 21.2517 85.9882 23.6347 82.9814 23.6347C70.6712 23.6347 71.3824 23.5182 71.1162 23.5182C69.201 23.5182 68.5377 22.7364 68.5377 20.6653L68.6167 12.0939H72.2515V7.67098H68.6542L68.6937 2.86544H63.5762L63.545 7.68138C63.545 7.68138 51.946 7.61692 51.501 7.61692C49.5422 7.61692 47.8163 8.03488 46.3108 8.85209V7.69801H41.1018L41.0706 35.9345L46.2733 35.8783L46.2858 27.0366C47.7976 27.8642 49.5318 28.2843 51.501 28.2843C54.5099 28.2843 57.0094 27.3069 58.9641 25.3939C60.9561 23.4787 61.9335 20.9793 61.9335 17.9308C61.9335 16.5044 61.7151 15.2068 61.2826 14.034L55.4311 14.0444C56.2151 15.0384 56.658 16.3838 56.658 17.9308C56.658 21.2122 54.5474 23.6347 51.5405 23.6347C50.0163 23.6347 48.8061 23.0878 47.8288 22.0335C46.8514 20.9398 46.3836 19.5715 46.3836 17.9308C46.3836 16.2902 46.8514 14.9219 47.8288 13.8677C48.8061 12.7739 50.0163 12.227 51.5405 12.227C51.9065 12.227 63.5159 12.1604 63.5159 12.1604L63.4577 22.0627C63.4182 26.4377 65.5683 28.3134 69.9829 28.3134C71.3512 28.3134 83.181 28.2988 83.181 28.2988L83.1706 28.278C86.0755 28.2302 88.5001 27.257 90.4049 25.3918C92.397 23.4767 93.3743 20.9772 93.3743 17.9288C93.3743 14.8803 92.397 12.4204 90.4049 10.5052C88.4502 8.59009 85.9508 7.61484 82.9418 7.61484L82.9439 7.619ZM116.26 7.619C113.603 7.619 111.534 9.06419 110.557 11.0958C109.579 8.78971 107.666 7.619 104.892 7.619C102.43 7.619 100.673 8.63375 99.6188 10.6279L99.2279 8.04944H94.8923V28.2323H99.9328V17.3881C99.9328 14.2232 101.378 12.5431 103.41 12.5431C105.246 12.5431 106.184 13.7159 106.184 16.0989V28.2323H111.261V17.1531C111.301 14.1442 112.746 12.5431 114.738 12.5431C116.574 12.5431 117.512 13.7159 117.512 16.0989V28.2323H122.59V15.0051C122.59 10.4345 120.363 7.62108 116.26 7.62108V7.619ZM133.802 7.619C130.872 7.619 128.529 8.59632 126.693 10.5489C124.857 12.464 123.958 14.9635 123.958 17.9724C123.958 20.9814 124.857 23.5598 126.653 25.4729C128.489 27.3485 130.872 28.2864 133.802 28.2864C138.529 28.2864 141.617 25.9033 142.867 21.6447H137.945C137.358 23.1689 136.029 23.9487 133.96 23.9487C131.186 23.9487 129.35 22.1521 129.194 19.4946H142.985V17.9308C142.985 11.1727 139.273 7.61692 133.804 7.61692L133.802 7.619ZM129.232 15.9803C129.506 13.5183 131.186 11.8381 133.686 11.8381C136.185 11.8381 137.828 13.4788 137.866 15.9803H129.232ZM149.217 11.0272L148.747 7.86229H144.372V28.2323H149.45V17.5919C149.529 15.9117 150.076 14.7015 151.051 13.9196C152.068 13.1378 153.395 12.7468 154.998 12.7468V7.6689C151.873 7.6689 149.957 9.03716 149.215 11.0292L149.217 11.0272ZM1.58244 0.0873357C0.709083 0.0852562 0 0.79018 0 1.65938C0 2.53481 0.704924 3.24182 1.57828 3.24182C2.44748 3.24182 3.1524 2.53689 3.1524 1.66562C3.1524 0.796418 2.44956 0.0894151 1.58036 0.0894151L1.58244 0.0873357ZM1.5762 2.90911C0.883754 2.90911 0.328548 2.34767 0.330628 1.65522C0.330628 0.973169 0.894151 0.415884 1.57828 0.417964C2.26657 0.417964 2.82385 0.979407 2.82177 1.66977C2.82177 2.3539 2.26033 2.91119 1.5762 2.90911ZM1.99624 1.89435C2.10021 1.84445 2.18339 1.77375 2.23746 1.66977C2.28944 1.56996 2.304 1.46599 2.29568 1.35578C2.2832 1.19359 2.2125 1.06258 2.07734 0.96901C1.96297 0.887912 1.82989 0.850483 1.69265 0.848404C1.44936 0.844245 1.20606 0.846324 0.962772 0.846324C0.958613 0.846324 0.952375 0.846324 0.946136 0.846324V2.40173H1.30588V1.97129C1.30588 1.97129 1.31627 1.97129 1.32043 1.97129C1.42024 1.97129 1.52214 1.97129 1.62403 1.97129C1.63235 1.97129 1.64274 1.97753 1.6469 1.98585C1.74048 2.11893 1.83405 2.25409 1.92554 2.38925C1.93178 2.39965 1.93802 2.40589 1.95258 2.40589C2.0711 2.40589 2.18963 2.40589 2.30816 2.40589C2.31232 2.40589 2.31647 2.40589 2.32271 2.40381C2.20627 2.23746 2.0919 2.0711 1.97545 1.90683C1.98169 1.90267 1.98793 1.90059 1.99416 1.89851L1.99624 1.89435ZM1.69265 1.67601C1.6573 1.68225 1.62195 1.68225 1.5866 1.68225C1.50134 1.68225 1.41609 1.68225 1.32875 1.68225C1.32251 1.68225 1.31419 1.68225 1.30796 1.68225V1.1416C1.30796 1.1416 1.32043 1.1416 1.32459 1.1416C1.42024 1.1416 1.5159 1.1416 1.60947 1.1416C1.65522 1.1416 1.70305 1.14784 1.74671 1.16032C1.89019 1.20191 1.9401 1.31003 1.9297 1.44104C1.91931 1.58452 1.82157 1.6573 1.69265 1.67601Z" fill="white"/>
</g>
<defs>
<clipPath id="clip0_292_29197">
<rect width="155" height="35.9345" fill="white"/>
</clipPath>
</defs>
</svg>
