<svg width="42" height="42" viewBox="0 0 42 42" fill="none" xmlns="http://www.w3.org/2000/svg">
<path d="M42 32.9998C42 34.371 40.8885 35.4827 39.5173 35.4827H2.48268C1.11152 35.4827 0 34.3709 0 32.9998V9.00034C0 7.62918 1.11152 6.51758 2.48268 6.51758H39.5172C40.8885 6.51758 41.9999 7.62918 41.9999 9.00034L42 32.9998Z" fill="#0099DF"/>
<path opacity="0.15" d="M1.76507 32.9998V9.00034C1.76507 7.62918 2.87675 6.51758 4.24791 6.51758H2.48259C1.11152 6.51758 0 7.62927 0 9.00034V32.9998C0 34.371 1.11152 35.4827 2.48268 35.4827H4.24799C2.87684 35.4827 1.76507 34.3709 1.76507 32.9998Z" fill="#202121"/>
<path d="M27.4551 19.2429C27.4551 17.764 28.1363 16.4444 29.2021 15.5803C28.3922 14.9236 27.36 14.5298 26.2361 14.5298C23.6332 14.5298 21.5234 16.6398 21.5234 19.2428C21.5234 21.8457 23.6332 23.9556 26.2361 23.9556C27.3602 23.9556 28.3922 23.562 29.2021 22.9051C28.1363 22.0412 27.4551 20.7217 27.4551 19.2429Z" fill="#EA001B"/>
<path d="M32.169 14.5298C31.045 14.5298 30.0133 14.9236 29.2031 15.5803C30.269 16.4444 30.9502 17.764 30.9502 19.2429C30.9502 20.7217 30.269 22.0412 29.2031 22.9052C30.0133 23.562 31.0451 23.9557 32.169 23.9557C34.7721 23.9557 36.8819 21.8458 36.8819 19.2429C36.8819 16.6398 34.772 14.5298 32.169 14.5298Z" fill="#F79F1A"/>
<path d="M30.9472 19.2427C30.9472 17.7638 30.266 16.4442 29.2001 15.5801C28.1344 16.4442 27.4531 17.7638 27.4531 19.2427C27.4531 20.7215 28.1343 22.041 29.2001 22.905C30.2659 22.041 30.9472 20.7215 30.9472 19.2427Z" fill="#FF5F01"/>
<path d="M13.5987 21.4273C13.5987 21.7585 13.33 22.0268 12.9993 22.0268H5.56042C5.22926 22.0268 4.96094 21.7585 4.96094 21.4273V15.6304C4.96094 15.2992 5.22934 15.031 5.56042 15.031H12.9993C13.3301 15.031 13.5987 15.2992 13.5987 15.6304V21.4273Z" fill="#FFC715"/>
<path d="M13.6782 27.1609H4.95823C4.57999 27.1609 4.27344 26.8542 4.27344 26.4761C4.27344 26.0978 4.57991 25.7913 4.95823 25.7913H13.6782C14.0564 25.7913 14.363 26.0977 14.363 26.4761C14.363 26.8542 14.0564 27.1609 13.6782 27.1609Z" fill="#34495E"/>
<path d="M13.6782 30.0166H4.95823C4.57999 30.0166 4.27344 29.7101 4.27344 29.3318C4.27344 28.9535 4.57991 28.647 4.95823 28.647H13.6782C14.0564 28.647 14.363 28.9534 14.363 29.3318C14.363 29.71 14.0564 30.0166 13.6782 30.0166Z" fill="#34495E"/>
<path d="M7.29434 22.0274H8.66393V21.3427V15.7163V15.0315H7.29434V15.7163V16.6785H5.65355H4.96875V18.0481H5.65355H7.29434V19.0108H5.65355H4.96875V20.3803H5.65355H7.29434V21.3427V22.0274Z" fill="#FFA617"/>
<path d="M12.9216 18.0481H13.6064V16.6785H12.9216H11.6157V15.7163V15.0315H10.2461V15.7163V19.6955C10.2461 20.0737 10.5526 20.3803 10.9309 20.3803H12.9216H13.6064V19.0107H12.9216H11.6157V18.0481H12.9216Z" fill="#FFA617"/>
<path opacity="0.15" d="M6.22225 21.4273V15.6304C6.22225 15.2992 6.49057 15.031 6.82173 15.031H5.56042C5.22926 15.031 4.96094 15.2992 4.96094 15.6304V21.4273C4.96094 21.7585 5.22934 22.0268 5.56042 22.0268H6.82182C6.49057 22.0269 6.22225 21.7585 6.22225 21.4273Z" fill="#202121"/>
</svg>
