<svg width="22" height="24" viewBox="0 0 22 24" fill="none" xmlns="http://www.w3.org/2000/svg">
<path d="M6.20156 11.2H5.40156V12.8H6.20156V11.2ZM15.8016 12.8H16.6016V11.2H15.8016V12.8ZM6.20156 6.4H5.40156V8H6.20156V6.4ZM9.40156 8H10.2016V6.4H9.40156V8ZM15.8016 0.8L16.3673 0.234315L16.1329 0H15.8016V0.8ZM20.6016 5.6H21.4016V5.26862L21.1673 5.03432L20.6016 5.6ZM11.0016 18.4L11.3593 19.1155L11.4239 19.0834L11.4816 19.04L11.0016 18.4ZM6.20156 12.8H15.8016V11.2H6.20156V12.8ZM6.20156 8H9.40156V6.4H6.20156V8ZM19.0016 22.4H3.00156V24H19.0016V22.4ZM2.20156 21.6V2.4H0.601562V21.6H2.20156ZM3.00156 1.6H15.8016V0H3.00156V1.6ZM19.8016 5.6V21.6H21.4016V5.6H19.8016ZM15.2358 1.36568L20.0358 6.16568L21.1673 5.03432L16.3673 0.234315L15.2358 1.36568ZM3.00156 22.4C2.55974 22.4 2.20156 22.0418 2.20156 21.6H0.601562C0.601562 22.9254 1.67607 24 3.00156 24V22.4ZM19.0016 24C20.327 24 21.4016 22.9254 21.4016 21.6H19.8016C19.8016 22.0418 19.4433 22.4 19.0016 22.4V24ZM2.20156 2.4C2.20156 1.95818 2.55974 1.6 3.00156 1.6V0C1.67607 0 0.601562 1.07452 0.601562 2.4H2.20156ZM7.76051 18.653C7.93833 18.1195 8.44295 17.6262 9.08913 17.4526C9.69166 17.2907 10.4672 17.397 11.2359 18.1658L12.3672 17.0342C11.2159 15.883 9.85814 15.5893 8.67399 15.9074C7.5335 16.2138 6.59812 17.0805 6.24262 18.147L7.76051 18.653ZM11.2359 18.1658C11.2881 18.2179 11.329 18.2646 11.3609 18.3058L12.6244 17.324C12.5473 17.2248 12.4613 17.1283 12.3672 17.0342L11.2359 18.1658ZM11.3609 18.3058C11.4862 18.4669 11.4582 18.5171 11.4623 18.4826C11.465 18.4592 11.4726 18.4954 11.3764 18.5829C11.2794 18.671 11.1222 18.7677 10.9128 18.8526C10.7077 18.936 10.4844 18.995 10.2822 19.0256C10.0686 19.0579 9.93134 19.0506 9.88211 19.0408C9.85447 19.0354 9.91073 19.0402 9.99233 19.1002C10.0959 19.1763 10.2258 19.337 10.2361 19.5683C10.2404 19.6659 10.2208 19.7421 10.2034 19.7891C10.1863 19.8349 10.1689 19.86 10.1664 19.8635C10.1639 19.867 10.1903 19.8307 10.2821 19.7565C10.4642 19.6093 10.7996 19.3954 11.3593 19.1155L10.6438 17.6845C10.0401 17.9862 9.58806 18.2602 9.27614 18.5123C9.12086 18.6379 8.97366 18.7792 8.86052 18.9389C8.7527 19.0912 8.62404 19.3341 8.63766 19.6395C8.65307 19.9853 8.84067 20.2394 9.04446 20.3893C9.22623 20.5229 9.42503 20.5814 9.57201 20.6104C9.87199 20.6698 10.2122 20.6544 10.5216 20.6077C11.1302 20.5155 11.9173 20.2536 12.4528 19.7666C12.7318 19.5128 12.995 19.1478 13.0513 18.6694C13.109 18.1797 12.9324 17.7205 12.6244 17.324L11.3609 18.3058ZM11.4816 19.04C11.7754 18.8195 12.0518 18.661 12.3103 18.5491L11.675 17.0806C11.2908 17.2469 10.9064 17.4714 10.5216 17.76L11.4816 19.04ZM12.3103 18.5491C13.3518 18.0984 14.2804 18.3366 15.2326 18.7901C15.4716 18.904 15.7052 19.0282 15.9419 19.1562C16.1724 19.281 16.416 19.4152 16.6476 19.5325C17.0876 19.7552 17.636 20 18.2016 20V18.4C18.052 18.4 17.8052 18.3251 17.3702 18.105C17.1644 18.0008 16.9505 17.8829 16.7036 17.7491C16.4627 17.6187 16.1988 17.4781 15.9206 17.3456C14.8032 16.8134 13.3424 16.3592 11.675 17.0806L12.3103 18.5491Z" fill="#3D005E"/>
</svg>
