<svg width="23" height="16" viewBox="0 0 23 16" fill="none" xmlns="http://www.w3.org/2000/svg">
<path fill-rule="evenodd" clip-rule="evenodd" d="M9.69234 9.35793C10.0284 11.3373 10.4366 13.4046 10.6623 13.8299C10.9826 14.4324 11.7321 14.666 12.3359 14.3458C12.9384 14.0255 13.1694 13.2734 12.8491 12.6709C12.6233 12.2456 11.1414 10.7479 9.69234 9.35793ZM9.18305 7.07534C9.89841 7.73689 13.4936 11.0827 14.0094 12.0566C14.6683 13.2983 14.1932 14.8445 12.9502 15.5048C12.5708 15.7056 12.1626 15.8001 11.761 15.8001C10.8461 15.8001 9.9601 15.3079 9.50202 14.4455C8.98617 13.4716 8.23405 8.61894 8.08836 7.6555C8.04767 7.37987 8.18418 7.10683 8.42963 6.97821C8.67771 6.84696 8.97698 6.88501 9.18305 7.07534ZM11.158 0.277344C17.3101 0.277344 22.3149 5.28354 22.3149 11.4343C22.3149 12.3308 22.2113 13.2142 22.0052 14.0595L21.8844 14.5609H15.7901V13.2483H20.837C20.9472 12.659 21.0024 12.0499 21.0024 11.4343C21.0024 6.00546 16.5855 1.58992 11.158 1.58992C5.72911 1.58992 1.31357 6.00546 1.31357 11.4343C1.31357 12.0499 1.36871 12.659 1.47765 13.2483H7.14277V14.5609H0.430207L0.309455 14.0595C0.104667 13.2142 0.000976562 12.3308 0.000976562 11.4343C0.000976562 5.28354 5.00588 0.277344 11.158 0.277344ZM17.4634 4.81784L18.3914 5.74584L17.0814 7.0558L16.1534 6.1278L17.4634 4.81784ZM4.85152 4.81784L6.16148 6.12779L5.23347 7.05579L3.92354 5.74582L4.85153 4.81782L4.85152 4.81784ZM11.8137 2.47763V4.331H10.5011V2.47762L11.8137 2.47763Z" fill="#8B8B8B"/>
</svg>
