<svg width="23" height="23" viewBox="0 0 23 23" fill="none" xmlns="http://www.w3.org/2000/svg">
<g clip-path="url(#clip0_1044_27663)">
<path fill-rule="evenodd" clip-rule="evenodd" d="M9.69136 12.3577C10.0274 14.3371 10.4356 16.4044 10.6614 16.8297C10.9816 17.4321 11.7311 17.6658 12.3349 17.3455C12.9374 17.0252 13.1684 16.2731 12.8481 15.6707C12.6224 15.2454 11.1405 13.7477 9.69136 12.3577ZM9.18208 10.0751C9.89744 10.7366 13.4926 14.0824 14.0085 15.0564C14.6674 16.2981 14.1922 17.8443 12.9492 18.5045C12.5699 18.7054 12.1616 18.7999 11.76 18.7999C10.8451 18.7999 9.95913 18.3076 9.50104 17.4453C8.98519 16.4713 8.23307 11.6187 8.08738 10.6553C8.04669 10.3796 8.1832 10.1066 8.42866 9.97797C8.67674 9.84671 8.976 9.88476 9.18208 10.0751ZM11.157 3.2771C17.3091 3.2771 22.314 8.28329 22.314 14.4341C22.314 15.3306 22.2103 16.2139 22.0042 17.0592L21.8834 17.5607H15.7891V16.2481H20.836C20.9463 15.6587 21.0014 15.0497 21.0014 14.4341C21.0014 9.00522 16.5845 4.58967 11.157 4.58967C5.72813 4.58967 1.3126 9.00522 1.3126 14.4341C1.3126 15.0497 1.36773 15.6587 1.47667 16.2481H7.14179V17.5607H0.42923L0.308479 17.0592C0.10369 16.2139 0 15.3306 0 14.4341C0 8.28329 5.0049 3.2771 11.157 3.2771ZM17.4624 7.8176L18.3904 8.7456L17.0804 10.0556L16.1524 9.12755L17.4624 7.8176ZM4.85054 7.8176L6.1605 9.12754L5.2325 10.0555L3.92256 8.74558L4.85055 7.81757L4.85054 7.8176ZM11.8128 5.47738V7.33076H10.5002V5.47737L11.8128 5.47738Z" fill="#3D005E"/>
</g>
<defs>
<clipPath id="clip0_1044_27663">
<rect width="22.314" height="22.314" fill="white"/>
</clipPath>
</defs>
</svg>
