<svg width="19" height="19" viewBox="0 0 19 19" fill="none" xmlns="http://www.w3.org/2000/svg">
<g clip-path="url(#clip0_760_50298)">
<path fill-rule="evenodd" clip-rule="evenodd" d="M18.0121 3.1326C18.0121 1.83507 16.9603 0.783203 15.6627 0.783203H3.1326C1.83507 0.783203 0.783203 1.83507 0.783203 3.1326V15.6627C0.783203 16.9603 1.83507 18.0121 3.1326 18.0121H15.6627C16.9603 18.0121 18.0121 16.9603 18.0121 15.6627V3.1326ZM16.4458 3.1326C16.4458 2.70009 16.0952 2.34947 15.6627 2.34947H3.1326C2.70009 2.34947 2.34947 2.70009 2.34947 3.1326V15.6627C2.34947 16.0952 2.70009 16.4458 3.1326 16.4458H15.6627C16.0952 16.4458 16.4458 16.0952 16.4458 15.6627V3.1326Z" fill="#8B8B8B"/>
<path d="M3.7647 13.7214L7.14427 7.52556C7.44109 6.98139 8.22249 6.98139 8.51929 7.52556L11.0007 12.0749L11.8507 10.5875C12.1513 10.0614 12.9098 10.0614 13.2105 10.5875L14.9936 13.7079C15.2919 14.23 14.9149 14.8796 14.3136 14.8796H4.4522C3.85776 14.8796 3.48005 14.2433 3.7647 13.7214Z" fill="#8B8B8B"/>
<path d="M14.0954 6.265C14.0954 7.13002 13.3942 7.83126 12.5292 7.83126C11.6641 7.83126 10.9629 7.13002 10.9629 6.265C10.9629 5.39997 11.6641 4.69873 12.5292 4.69873C13.3942 4.69873 14.0954 5.39997 14.0954 6.265Z" fill="#8B8B8B"/>
</g>
<defs>
<clipPath id="clip0_760_50298">
<rect width="18.7952" height="18.7952" fill="white"/>
</clipPath>
</defs>
</svg>
