<svg width="16" height="16" viewBox="0 0 16 16" fill="none" xmlns="http://www.w3.org/2000/svg">
<g clip-path="url(#clip0_760_50305)">
<path d="M15.3206 0H0.679406C0.305719 0 0 0.305719 0 0.679406V15.3206C0 15.6943 0.305719 16 0.679406 16H4.48409H11.5499H15.3546C15.6943 16 16 15.6943 16 15.3206V0.679406C16 0.305719 15.6943 0 15.3206 0ZM5.1295 14.6752V7.84713H10.8705V14.6752H5.1295ZM14.6752 14.6752H12.2632V7.16772C12.2632 6.79403 11.9575 6.48831 11.5838 6.48831H4.48406C4.11037 6.48831 3.80466 6.79403 3.80466 7.16772V14.6752H1.35881V1.35881H14.6752V14.6752Z" fill="#8B8B8B"/>
<path d="M6.01339 4.55193H10.0219C10.3956 4.55193 10.7013 4.28018 10.7353 3.87252C10.7353 3.49883 10.4295 3.19312 10.0559 3.19312H6.01339C5.6397 3.19312 5.33398 3.49883 5.33398 3.87252C5.33398 4.24618 5.6397 4.55193 6.01339 4.55193Z" fill="#8B8B8B"/>
</g>
<defs>
<clipPath id="clip0_760_50305">
<rect width="16" height="16" fill="white"/>
</clipPath>
</defs>
</svg>
