<svg width="24" height="24" viewBox="0 0 24 24" fill="none" xmlns="http://www.w3.org/2000/svg">
<g clip-path="url(#clip0_373_25118)">
<path d="M2.57171 23.1429H21.4289C22.3757 23.1429 23.1431 22.3754 23.1431 21.4286V2.57143C23.1431 1.62466 22.3757 0.857147 21.4289 0.857147H2.57171C1.62493 0.857147 0.857422 1.62466 0.857422 2.57143V21.4286C0.857422 22.3754 1.62493 23.1429 2.57171 23.1429Z" stroke="#A4A4A4" stroke-width="1.71429" stroke-linecap="round" stroke-linejoin="round"/>
<path d="M3 23.1429L15.5143 11.3485C15.6683 11.2202 15.8624 11.15 16.0629 11.15C16.2633 11.15 16.4574 11.2202 16.6114 11.3485L23.1429 16.0285" stroke="#A4A4A4" stroke-width="1.71429" stroke-linecap="round" stroke-linejoin="round"/>
<path d="M7.71401 10.2857C9.13417 10.2857 10.2854 9.13446 10.2854 7.7143C10.2854 6.29413 9.13417 5.14287 7.71401 5.14287C6.29384 5.14287 5.14258 6.29413 5.14258 7.7143C5.14258 9.13446 6.29384 10.2857 7.71401 10.2857Z" stroke="#A4A4A4" stroke-width="1.71429" stroke-linecap="round" stroke-linejoin="round"/>
</g>
<defs>
<clipPath id="clip0_373_25118">
<rect width="24" height="24" fill="white"/>
</clipPath>
</defs>
</svg>
