<svg width="24" height="24" viewBox="0 0 24 24" fill="none" xmlns="http://www.w3.org/2000/svg">
<path d="M17.2929 3.91071L17.3036 3.90536H17.3089L12 0.857143L6.69375 3.90536H6.68839L6.70714 3.91339L2.34375 6.42857V17.5714L12 23.1429L21.6563 17.5714V6.42857L17.2929 3.91071ZM11.2152 20.8821L7.38214 18.6696V14.9304L3.91071 12.9589V8.27411L11.2152 12.4875V20.8821ZM4.66607 6.89732L8.27411 4.81339L11.9946 6.94821L15.7205 4.80804L19.342 6.89732L12.0054 11.1295L4.66607 6.89732ZM20.0893 12.9723L16.6393 14.9304V18.6562L12.7848 20.8795V12.4929L20.0893 8.27947V12.9723Z" fill="#8B8B8B"/>
</svg>
