<svg width="21" height="21" viewBox="0 0 21 21" fill="none" xmlns="http://www.w3.org/2000/svg">
<g id="opened-packaged_svgrepo.com" clip-path="url(#clip0_542_143612)">
<path id="Vector" d="M20.5064 8.12548L18.6799 4.68438C18.618 4.56766 18.5124 4.48733 18.3928 4.45437C18.392 4.45416 18.3915 4.45388 18.3906 4.45364L10.7818 2.39982C10.7027 2.37853 10.6194 2.37841 10.5402 2.39966L2.89315 4.45348C2.8923 4.45372 2.89173 4.454 2.89084 4.45424C2.77101 4.48713 2.66527 4.56753 2.60326 4.68438L0.776871 8.12548C0.717358 8.23764 0.706328 8.36927 0.746327 8.48975C0.786326 8.61023 0.87392 8.70914 0.988705 8.76336L2.5778 9.51454V14.2152C2.5778 14.3935 2.67986 14.5562 2.8405 14.6336L10.4588 18.3104C10.5228 18.3413 10.5918 18.3566 10.6607 18.3566C10.729 18.3566 10.7969 18.3408 10.8598 18.311C10.8608 18.3108 10.8617 18.3108 10.8627 18.3103L18.481 14.6336C18.6416 14.5561 18.7437 14.3935 18.7437 14.2152V9.51494C18.7437 9.50888 18.743 9.50294 18.7428 9.49696L20.2946 8.7634C20.4094 8.70914 20.497 8.61027 20.537 8.48979C20.5769 8.36923 20.5659 8.23768 20.5064 8.12548ZM10.6604 3.32958L16.7446 4.97185L10.6416 7.2337L4.54156 4.97298L10.6604 3.32958ZM3.23346 5.47919L10.0168 7.9932L8.52284 11.297L1.8259 8.13125L3.23346 5.47919ZM3.50707 13.9235V9.95384L8.5529 12.339C8.61561 12.3687 8.68348 12.3836 8.75148 12.3836C8.80566 12.3836 8.85997 12.3742 8.9118 12.3551C9.02877 12.3121 9.12352 12.224 9.17487 12.1104L10.1961 9.85206V17.1518L3.50707 13.9235ZM17.8144 13.9235L11.1253 17.1518V9.93655L12.1084 12.1104C12.1597 12.224 12.2545 12.3121 12.3714 12.3551C12.4233 12.3742 12.4776 12.3836 12.5318 12.3836C12.5998 12.3836 12.6676 12.3687 12.7303 12.339L17.8144 9.93578V13.9235ZM12.7604 11.297L11.2664 7.99316L18.0497 5.47915L19.4573 8.13121L12.7604 11.297Z" fill="#3D005E"/>
</g>
<defs>
<clipPath id="clip0_542_143612">
<rect width="19.8379" height="19.8379" fill="white" transform="translate(0.722656 0.451172)"/>
</clipPath>
</defs>
</svg>
