<svg width="22" height="22" viewBox="0 0 22 22" fill="none" xmlns="http://www.w3.org/2000/svg">
<g id="order-1_svgrepo.com" clip-path="url(#clip0_542_143573)">
<path id="Vector" d="M2.7185 18.8637C1.69146 18.8637 0.84375 18.0323 0.84375 16.989V2.36596C0.84375 1.33892 1.67516 0.491211 2.7185 0.491211H16.4775C17.5045 0.491211 18.3523 1.32262 18.3523 2.36596V9.27807L18.2871 9.26177C18.0099 9.18026 17.7491 9.14765 17.4556 9.14765H17.4393L17.423 9.09875H17.3741V2.36596C17.3741 1.8932 16.9503 1.46934 16.4775 1.46934H2.7185C2.24574 1.46934 1.82188 1.8932 1.82188 2.36596V16.989C1.82188 17.4618 2.24574 17.8856 2.7185 17.8856H9.94035L9.95665 17.9019C10.136 18.1464 10.0382 18.3258 9.97296 18.4562C9.90775 18.5703 9.87514 18.6518 9.98926 18.7659L10.0871 18.8637H2.7185Z" fill="#3D005E"/>
<path id="Vector_2" d="M3.77526 4.07714C3.59594 4.07714 3.44922 3.84891 3.44922 3.57177C3.44922 3.29464 3.59594 3.06641 3.77526 3.06641H9.31799C9.49732 3.06641 9.64404 3.29464 9.64404 3.57177C9.64404 3.84891 9.49732 4.07714 9.31799 4.07714H3.77526Z" fill="#3D005E"/>
<path id="Vector_3" d="M9.31799 3.11621H3.77526C3.62854 3.11621 3.49813 3.31184 3.49813 3.57267C3.49813 3.83351 3.62854 4.02913 3.77526 4.02913H9.31799C9.46471 4.02913 9.59513 3.83351 9.59513 3.57267C9.59513 3.31184 9.48101 3.11621 9.31799 3.11621ZM3.71005 6.68638C3.56333 6.68638 3.44922 6.47445 3.44922 6.18102C3.44922 5.88758 3.56333 5.67565 3.71005 5.67565H7.68778C7.8345 5.67565 7.94861 5.88758 7.94861 6.18102C7.94861 6.47445 7.8345 6.68638 7.68778 6.68638H3.71005Z" fill="#3D005E"/>
<path id="Vector_4" d="M7.68898 5.72382H3.71125C3.59714 5.72382 3.51562 5.91945 3.51562 6.18028C3.51562 6.44112 3.59714 6.63674 3.71125 6.63674H7.68898C7.80309 6.63674 7.8846 6.44112 7.8846 6.18028C7.8846 5.91945 7.78679 5.72382 7.68898 5.72382ZM15.9053 21.488C15.3347 21.488 14.7152 21.4554 13.9164 21.3902C12.7589 21.2924 11.6993 20.7544 10.6723 19.76L6.04246 15.228C4.96652 14.1846 4.91761 12.8153 5.87944 11.7719C6.28699 11.3481 6.92278 11.0872 7.60747 11.0872C8.29216 11.0872 8.91164 11.3481 9.30289 11.8045C9.31919 11.8208 9.3518 11.8534 9.417 11.886C9.43331 11.9023 9.46591 11.9186 9.48221 11.9349V9.75045V8.67451C9.48221 7.8431 9.48221 6.99539 9.49852 6.16398C9.51482 4.92502 10.4766 3.97949 11.7482 3.97949H11.7645C12.9872 3.97949 13.9164 4.87611 13.9816 6.09877C13.9979 6.37591 13.9979 6.66935 13.9816 6.96279V7.33774H14.2261C15.0739 7.33774 15.7259 7.63117 16.1987 8.25066C16.215 8.28326 16.3128 8.31586 16.4432 8.31586C16.4921 8.31586 16.541 8.31587 16.5737 8.29956C16.7204 8.28326 16.8671 8.26696 16.9975 8.26696C17.6496 8.26696 18.2202 8.52779 18.7092 9.06576C18.7907 9.14727 18.9701 9.21248 19.1331 9.21248H19.1983C19.3124 9.19618 19.4428 9.17988 19.5569 9.17988C20.7796 9.17988 21.7577 10.0439 21.774 11.1687C21.8229 13.2391 21.8555 15.2769 21.6273 17.2983C21.3502 19.7437 20.046 21.0478 17.5029 21.3739C17.0301 21.4554 16.4921 21.488 15.9053 21.488ZM7.52595 12.0165C7.18361 12.0165 6.85757 12.1469 6.61303 12.3751C6.3196 12.6685 6.15657 13.0109 6.15657 13.3858C6.15657 13.7771 6.3359 14.1683 6.66194 14.4944L7.28142 15.1139C8.6345 16.4506 10.0365 17.82 11.4385 19.1731C12.1232 19.8252 12.9057 20.249 13.7697 20.4121C14.4381 20.5425 15.1065 20.6077 15.7585 20.6077C16.3454 20.6077 16.9323 20.5588 17.5029 20.4447C19.5732 20.0697 20.5188 19.0753 20.7144 17.1516C20.8937 15.3095 20.8774 13.4184 20.8448 11.5926V11.2992C20.8285 10.6308 20.3557 10.1743 19.6874 10.1743C19.508 10.1743 19.345 10.2069 19.1657 10.2721V12.8153C19.1657 13.0435 19.1657 13.4836 18.7092 13.4836H18.6929C18.5462 13.4836 18.4321 13.451 18.3669 13.3695C18.2365 13.2391 18.2202 12.9946 18.2202 12.799V12.7011C18.2202 11.9512 18.2365 11.185 18.2202 10.4188C18.2039 9.75045 17.7311 9.27769 17.079 9.27769C16.916 9.27769 16.753 9.3103 16.6063 9.3592V12.0002C16.6063 12.2284 16.5573 12.4077 16.4432 12.5218C16.3617 12.6033 16.2476 12.6522 16.1009 12.6522H16.0846C15.6444 12.6359 15.6444 12.1795 15.6444 12.0165V10.9405V9.57113C15.6444 9.26139 15.514 8.93535 15.2695 8.69081C15.0412 8.46258 14.7315 8.33217 14.4218 8.33217C14.2913 8.33217 14.1446 8.34847 14.0142 8.39738V9.57113C14.0142 10.1254 14.0142 10.7123 13.9816 11.2829C13.9653 11.4296 13.8349 11.5437 13.7045 11.6578C13.6556 11.7067 13.5904 11.7556 13.5414 11.8045L13.4925 11.8534L13.4599 11.7719C13.4273 11.723 13.3784 11.6741 13.3295 11.6415C13.2317 11.5274 13.1176 11.4133 13.0524 11.2829C13.0035 11.185 13.0198 11.0709 13.0198 10.9731V10.8427V9.42441C13.0198 8.38107 13.0198 7.30513 13.0035 6.24549C13.0035 5.46299 12.4981 4.94132 11.7645 4.92502C10.9657 4.92502 10.4277 5.49559 10.4277 6.327V14.0053L10.2158 14.1357L10.1995 14.1031C10.0528 13.9401 9.88977 13.7771 9.74305 13.6141C9.4007 13.2554 9.04205 12.8642 8.68341 12.5055C8.35736 12.1958 7.94981 12.0165 7.52595 12.0165Z" fill="#3D005E"/>
</g>
<defs>
<clipPath id="clip0_542_143573">
<rect width="21.0792" height="21.0792" fill="white" transform="translate(0.84375 0.450195)"/>
</clipPath>
</defs>
</svg>
