<svg width="19" height="19" viewBox="0 0 19 19" fill="none" xmlns="http://www.w3.org/2000/svg">
<g clip-path="url(#clip0_760_50314)">
<path d="M14.8798 18.0121C15.0875 18.0121 15.2867 17.9296 15.4336 17.7827C15.5804 17.6359 15.6629 17.4367 15.6629 17.229V6.26513C15.6629 6.15221 15.6385 6.04062 15.5913 5.93802C15.5441 5.83543 15.4753 5.74425 15.3896 5.67073L9.90769 0.971939C9.76584 0.850609 9.58532 0.783936 9.39865 0.783936C9.21199 0.783936 9.03147 0.850609 8.88962 0.971939L3.40769 5.67073C3.32169 5.7441 3.25259 5.83522 3.20514 5.93782C3.15769 6.04042 3.13301 6.15209 3.13281 6.26513V17.229C3.13281 17.4367 3.21532 17.6359 3.36219 17.7827C3.50905 17.9296 3.70825 18.0121 3.91594 18.0121H14.8798ZM4.69908 6.62537L9.39787 2.59772L14.0967 6.62537V16.4459H4.69908V6.62537ZM10.9641 7.04826C10.9641 7.35804 10.8723 7.66086 10.7002 7.91843C10.5281 8.176 10.2835 8.37676 9.99725 8.4953C9.71106 8.61385 9.39613 8.64487 9.09231 8.58443C8.78848 8.524 8.5094 8.37483 8.29036 8.15578C8.07131 7.93673 7.92214 7.65765 7.8617 7.35383C7.80127 7.05 7.83228 6.73508 7.95083 6.44888C8.06938 6.16268 8.27013 5.91807 8.5277 5.74596C8.78527 5.57386 9.08809 5.482 9.39787 5.482C9.81327 5.482 10.2117 5.64702 10.5054 5.94075C10.7991 6.23448 10.9641 6.63286 10.9641 7.04826Z" fill="#8B8B8B"/>
</g>
<defs>
<clipPath id="clip0_760_50314">
<rect width="18.7952" height="18.7952" fill="white"/>
</clipPath>
</defs>
</svg>
