<svg width="23" height="23" viewBox="0 0 23 23" fill="none" xmlns="http://www.w3.org/2000/svg">
<path fill-rule="evenodd" clip-rule="evenodd" d="M9.29748 8.36773C8.78399 8.36773 8.36773 8.78399 8.36773 9.29748V19.5247C8.36773 20.0382 8.78399 20.4545 9.29748 20.4545H19.5247C20.0382 20.4545 20.4545 20.0382 20.4545 19.5247V9.29748C20.4545 8.78399 20.0382 8.36773 19.5247 8.36773H9.29748ZM13.9462 6.50824V2.78924C13.9462 2.27576 13.53 1.8595 13.0165 1.8595H2.78924C2.27576 1.8595 1.8595 2.27576 1.8595 2.78924V13.0165C1.8595 13.53 2.27576 13.9462 2.78924 13.9462H6.50824V9.29748C6.50824 7.75703 7.75703 6.50824 9.29748 6.50824H13.9462ZM15.8057 6.50824H19.5247C21.0652 6.50824 22.314 7.75703 22.314 9.29748V19.5247C22.314 21.0652 21.0652 22.314 19.5247 22.314H9.29748C7.75703 22.314 6.50824 21.0652 6.50824 19.5247V15.8057H2.78924C1.24879 15.8057 0 14.557 0 13.0165V2.78924C0 1.24879 1.24879 0 2.78924 0H13.0165C14.557 0 15.8057 1.24879 15.8057 2.78924V6.50824Z" fill="#8B8B8B"/>
</svg>
