<svg width="19" height="19" viewBox="0 0 19 19" fill="none" xmlns="http://www.w3.org/2000/svg">
<g clip-path="url(#clip0_760_50318)">
<path d="M17.6915 10.669V1.65864C17.6915 0.718639 16.9729 0 16.0331 0H1.66035C0.720592 0 0.00195312 0.718639 0.00195312 1.65864V16.0312C0.00195312 16.9709 0.720592 17.6896 1.66035 17.6896H10.671C11.4997 18.3529 12.6058 18.7952 13.8219 18.7952C16.5859 18.7952 18.7971 16.584 18.7971 13.82C18.7971 12.6038 18.3549 11.5535 17.6915 10.669ZM10.3943 10.1718H7.40946V11.2771H9.5101C9.28898 11.609 9.12314 11.9957 9.01258 12.3825H3.31875V13.4878H8.84674C8.84674 13.5976 8.84674 13.7089 8.84674 13.8195C8.84674 14.5381 9.01258 15.1462 9.2337 15.7545H3.04235C2.43427 15.7545 1.93675 15.2568 1.93675 14.6492V4.69879C1.93675 4.09071 2.43427 3.59344 3.04235 3.59344H7.74114C8.73618 3.59344 8.73618 3.59344 8.79146 3.04064C8.79146 2.5984 9.12314 1.93504 9.95234 1.93504H14.6509C15.2592 1.93504 15.7562 2.43256 15.7562 3.04064V9.17647C15.314 9.01063 14.8718 8.84479 14.3742 8.78976V7.90528H5.19802V9.01063H12.2736C11.5555 9.28728 10.9474 9.67399 10.3943 10.1718ZM16.3095 15.3128H11.3343V14.2074H16.3095V15.3128ZM16.3095 13.3777H11.3343V12.2724H16.3095V13.3777Z" fill="#8B8B8B"/>
</g>
<defs>
<clipPath id="clip0_760_50318">
<rect width="18.7952" height="18.7952" fill="white"/>
</clipPath>
</defs>
</svg>
