<svg width="21" height="21" viewBox="0 0 21 21" fill="none" xmlns="http://www.w3.org/2000/svg">
<path d="M7.875 18.375H13.125M7.875 18.375V14M7.875 18.375H3.15C2.86005 18.375 2.625 18.14 2.625 17.85V14.525C2.625 14.235 2.86005 14 3.15 14H7.875M13.125 18.375V7.875M13.125 18.375H17.85C18.14 18.375 18.375 18.14 18.375 17.85V3.15C18.375 2.86005 18.14 2.625 17.85 2.625H13.65C13.36 2.625 13.125 2.86005 13.125 3.15V7.875M7.875 14V8.4C7.875 8.11005 8.11005 7.875 8.4 7.875H13.125" stroke="#8B8B8B" stroke-width="1.2717"/>
</svg>
