<svg width="135" height="106" viewBox="0 0 135 106" fill="none" xmlns="http://www.w3.org/2000/svg">
<path opacity="0.42" d="M30.5724 98.5508C30.5724 98.5508 19.6678 99.3454 15.1858 97.4292C10.7038 95.5129 13.9235 90.0104 18.2874 88.8114C22.6513 87.6125 25.2973 94.198 27.248 88.1082C29.1988 82.0185 34.295 78.9842 37.5519 83.126C40.8088 87.2679 44.1399 88.5864 47.5858 84.884C51.0316 81.1817 54.2075 84.2055 55.6081 89.6307C57.0088 95.0559 73.2054 84.645 79.412 86.6772C85.6186 88.7095 90.3268 94.6972 94.1169 88.2348C97.907 81.7724 102.389 80.0952 104.917 83.9242C107.445 87.7531 108.248 92.3028 112.73 88.8466C117.212 85.3904 123.3 88.495 121.576 92.556C119.851 96.617 108.302 97.9988 108.302 97.9988C108.302 97.9988 41.2475 94.525 30.5724 98.5508Z" fill="#E6E6E6"/>
<path d="M63.265 77.9638C63.265 77.9638 65.6815 86.3777 60.97 88.8635C56.2585 91.3493 53.4168 87.4782 48.5028 90.8887C43.5888 94.2992 46.1774 82.4503 38.6815 82.9882C31.1856 83.5262 33.997 89.7179 33.997 89.7179C33.997 89.7179 27.5373 83.1464 24.1893 88.8635C20.8413 94.5805 22.4579 99.953 37.5509 98.3356C52.6439 96.7182 63.7173 98.9193 76.792 98.6274C89.8668 98.3356 113.917 101.029 115.2 93.4905C116.482 85.9522 109.773 82.6085 102.79 86.8347C95.8068 91.061 96.9779 81.3216 88.8982 85.7799C80.8184 90.2382 71.2604 95.3716 68.8169 75.6538L63.265 77.9638Z" fill="#E6E6E6"/>
<path d="M46.8208 11.0225C29.5206 14.9956 17.995 32.3894 21.1877 50.539C22.7098 59.2025 27.6002 67.7991 39.8886 71.8109C69.3793 81.4448 102.62 76.6384 108.482 57.6765C114.344 38.7147 110.548 26.5071 96.2443 16.9927C87.0036 10.8467 64.894 6.87365 46.8208 11.0225Z" fill="#3D005E"/>
<path d="M58.275 47.2195L44.4375 63.3052H59.5103L58.275 47.2195Z" fill="#68E1FD"/>
<path d="M75.1688 47.2195L89.0063 63.3052H73.9336L75.1688 47.2195Z" fill="#68E1FD"/>
<path d="M66.4243 21.4795V21.3845L66.3771 21.4337L66.3298 21.3845V21.483C65.1283 22.7417 53.0661 36.5315 60.0152 75.6542H73.3734C80.3259 36.4752 67.6596 22.7136 66.4243 21.4795Z" fill="#68E1FD"/>
<path opacity="0.11" d="M74.5043 41.344L74.889 44.1146C71.2795 45.6748 67.3683 46.3288 63.4714 46.0238C62.432 45.926 61.3856 46.1035 60.4297 46.54C59.4738 46.9764 58.6393 47.6576 58.0039 48.5202C58.0039 48.5202 58.3853 42.8031 58.6587 41.5057L74.5043 41.344Z" fill="#3B1E59"/>
<path opacity="0.7" d="M66.4243 21.4795V21.3845L66.3771 21.4337L66.3298 21.3845V21.483C65.1283 22.7417 53.0661 36.5315 60.0152 75.6542H73.3734C80.3259 36.4752 67.6596 22.7136 66.4243 21.4795Z" fill="white"/>
<path opacity="0.08" d="M61.732 54.1853L58.0195 58.5416C58.1085 62.4219 58.4843 66.2892 59.1434 70.1093L68.5293 62.8452L61.732 54.1853Z" fill="black"/>
<path d="M59.5078 72.6409L60.0141 75.6541H73.4938L74.0237 72.6409H59.5078Z" fill="#FFD200"/>
<path d="M59.3183 37.9272L59.2913 38.0116C58.9126 39.0463 58.7126 40.1426 58.7007 41.2499L58.6602 41.5065C58.6602 41.5065 66.156 45.9438 74.5058 41.3448C74.547 41.1915 74.5663 41.0328 74.5632 40.8737C74.5324 39.8593 74.3195 38.8599 73.9354 37.9272H59.3183Z" fill="#FFD200"/>
<path d="M59.5078 72.6409L60.0141 75.6541H73.4938L74.0237 72.6409H59.5078Z" fill="#68E1FD"/>
<path d="M59.3183 37.9272L59.2913 38.0116C58.9126 39.0463 58.7126 40.1426 58.7007 41.2499L58.6602 41.5065C58.6602 41.5065 66.156 45.9438 74.5058 41.3448C74.547 41.1915 74.5663 41.0328 74.5632 40.8737C74.5324 39.8593 74.3195 38.8599 73.9354 37.9272H59.3183Z" fill="#68E1FD"/>
<path opacity="0.08" d="M59.5078 72.6409L60.0141 75.6541H73.4938L74.0237 72.6409H59.5078Z" fill="black"/>
<path opacity="0.08" d="M59.3183 37.9272L59.2913 38.0116C58.9126 39.0463 58.7126 40.1426 58.7007 41.2499L58.6602 41.5065C58.6602 41.5065 66.156 45.9438 74.5058 41.3448C74.547 41.1915 74.5663 41.0328 74.5632 40.8737C74.5324 39.8593 74.3195 38.8599 73.9354 37.9272H59.3183Z" fill="black"/>
<path d="M59.3164 37.9275C59.3164 37.9275 66.4039 41.3626 73.9335 37.9275C73.9335 37.9275 72.8772 27.1615 67.8585 20.9698C67.707 20.7836 67.5178 20.6347 67.3044 20.5338C67.0911 20.4329 66.8589 20.3825 66.6246 20.3862C66.3904 20.3899 66.1598 20.4476 65.9495 20.5552C65.7392 20.6628 65.5543 20.8176 65.4083 21.0084C63.7478 23.1778 60.8385 28.1881 59.3164 37.9275Z" fill="#68E1FD"/>
<path d="M66.7945 63.3058C70.0099 63.3058 72.6164 60.5903 72.6164 57.2407C72.6164 53.891 70.0099 51.1755 66.7945 51.1755C63.5792 51.1755 60.9727 53.891 60.9727 57.2407C60.9727 60.5903 63.5792 63.3058 66.7945 63.3058Z" fill="#68E1FD"/>
<path d="M66.7961 60.9428C68.7588 60.9428 70.3499 59.2852 70.3499 57.2404C70.3499 55.1957 68.7588 53.5381 66.7961 53.5381C64.8333 53.5381 63.2422 55.1957 63.2422 57.2404C63.2422 59.2852 64.8333 60.9428 66.7961 60.9428Z" fill="#24285B"/>
<path opacity="0.16" d="M67.6271 57.2407C68.3187 57.2407 68.8792 56.6567 68.8792 55.9363C68.8792 55.2159 68.3187 54.6318 67.6271 54.6318C66.9356 54.6318 66.375 55.2159 66.375 55.9363C66.375 56.6567 66.9356 57.2407 67.6271 57.2407Z" fill="white"/>
<path d="M60.0153 75.6538L51.9727 85.7799L68.8207 79.7465V75.6538H60.0153Z" fill="#68E1FD"/>
<path d="M73.4309 75.6538L81.4735 85.7799L64.6289 79.7465V75.6538H73.4309Z" fill="#68E1FD"/>
<path d="M32.0667 50.9823C32.6687 50.9823 33.1568 50.4738 33.1568 49.8466C33.1568 49.2194 32.6687 48.7109 32.0667 48.7109C31.4646 48.7109 30.9766 49.2194 30.9766 49.8466C30.9766 50.4738 31.4646 50.9823 32.0667 50.9823Z" fill="white"/>
<path d="M56.7776 17.2318C57.3797 17.2318 57.8678 16.7233 57.8678 16.0961C57.8678 15.4689 57.3797 14.9604 56.7776 14.9604C56.1756 14.9604 55.6875 15.4689 55.6875 16.0961C55.6875 16.7233 56.1756 17.2318 56.7776 17.2318Z" fill="white"/>
<path d="M85.094 40.7042C85.6961 40.7042 86.1842 40.1957 86.1842 39.5685C86.1842 38.9413 85.6961 38.4329 85.094 38.4329C84.492 38.4329 84.0039 38.9413 84.0039 39.5685C84.0039 40.1957 84.492 40.7042 85.094 40.7042Z" fill="white"/>
<path d="M81.4216 18.6801C81.7105 18.6801 81.9447 18.4361 81.9447 18.1351C81.9447 17.8341 81.7105 17.5901 81.4216 17.5901C81.1326 17.5901 80.8984 17.8341 80.8984 18.1351C80.8984 18.4361 81.1326 18.6801 81.4216 18.6801Z" fill="white"/>
<path d="M104.75 46.0201C105.039 46.0201 105.273 45.7761 105.273 45.4752C105.273 45.1742 105.039 44.9302 104.75 44.9302C104.461 44.9302 104.227 45.1742 104.227 45.4752C104.227 45.7761 104.461 46.0201 104.75 46.0201Z" fill="white"/>
<path d="M93.0856 68.172C93.3745 68.172 93.6087 67.928 93.6087 67.627C93.6087 67.326 93.3745 67.082 93.0856 67.082C92.7967 67.082 92.5625 67.326 92.5625 67.627C92.5625 67.928 92.7967 68.172 93.0856 68.172Z" fill="white"/>
<path d="M51.0075 69.6517C51.2964 69.6517 51.5306 69.4077 51.5306 69.1068C51.5306 68.8058 51.2964 68.5618 51.0075 68.5618C50.7186 68.5618 50.4844 68.8058 50.4844 69.1068C50.4844 69.4077 50.7186 69.6517 51.0075 69.6517Z" fill="white"/>
<path opacity="0.08" d="M43.9529 42.6842C49.9157 42.6842 54.7495 37.6484 54.7495 31.4364C54.7495 25.2245 49.9157 20.1887 43.9529 20.1887C37.9901 20.1887 33.1562 25.2245 33.1562 31.4364C33.1562 37.6484 37.9901 42.6842 43.9529 42.6842Z" fill="white"/>
<path d="M43.9535 40.3525C48.6805 40.3525 52.5125 36.3604 52.5125 31.4359C52.5125 26.5114 48.6805 22.5193 43.9535 22.5193C39.2265 22.5193 35.3945 26.5114 35.3945 31.4359C35.3945 36.3604 39.2265 40.3525 43.9535 40.3525Z" fill="#FFD200"/>
<path opacity="0.08" d="M40.983 29.39C41.9746 29.39 42.7785 28.5525 42.7785 27.5194C42.7785 26.4864 41.9746 25.6489 40.983 25.6489C39.9914 25.6489 39.1875 26.4864 39.1875 27.5194C39.1875 28.5525 39.9914 29.39 40.983 29.39Z" fill="black"/>
<path opacity="0.08" d="M46.3739 28.6448C47.0356 28.6448 47.572 28.086 47.572 27.3966C47.572 26.7073 47.0356 26.1484 46.3739 26.1484C45.7122 26.1484 45.1758 26.7073 45.1758 27.3966C45.1758 28.086 45.7122 28.6448 46.3739 28.6448Z" fill="black"/>
</svg>
