<svg width="22" height="19" viewBox="0 0 22 19" fill="none" xmlns="http://www.w3.org/2000/svg">
<path d="M2.94222 17.5246C3.06376 17.5246 3.16222 17.4261 3.16222 17.3046V11.121C3.16222 10.9995 3.06376 10.901 2.94222 10.901H1.18222C1.15333 10.901 1.12472 10.9067 1.09802 10.9178C1.07133 10.9288 1.04708 10.945 1.02665 10.9655C1.00622 10.9859 0.99001 11.0102 0.978956 11.0368C0.967902 11.0635 0.962216 11.0922 0.962221 11.121V17.3046C0.962221 17.4261 1.06068 17.5246 1.18222 17.5246H2.94222ZM2.94222 18.4046H1.18222C0.574686 18.4046 0.0822213 17.9121 0.0822213 17.3046V11.121C0.0822213 10.5135 0.574686 10.021 1.18222 10.021H2.94222C3.54976 10.021 4.04222 10.5135 4.04222 11.121V17.3046C4.04222 17.9121 3.54976 18.4046 2.94222 18.4046ZM8.92377 17.5246C9.04531 17.5246 9.14377 17.4261 9.14377 17.3046V9.84416C9.14377 9.72263 9.04531 9.62416 8.92377 9.62416H7.16377C7.13488 9.62416 7.10627 9.62985 7.07958 9.6409C7.05288 9.65195 7.02863 9.66816 7.0082 9.68859C6.98777 9.70902 6.97156 9.73327 6.96051 9.75997C6.94945 9.78666 6.94377 9.81527 6.94377 9.84416V17.3046C6.94377 17.4261 7.04224 17.5246 7.16377 17.5246H8.92377ZM8.92377 18.4046H7.16377C6.55624 18.4046 6.06377 17.9121 6.06377 17.3046V9.84416C6.06377 9.23663 6.55624 8.74416 7.16377 8.74416H8.92377C9.53131 8.74416 10.0238 9.23663 10.0238 9.84416V17.3046C10.0238 17.9121 9.53131 18.4046 8.92377 18.4046ZM14.9053 17.5379C15.0269 17.5379 15.1253 17.4394 15.1253 17.3179V8.58035C15.1253 8.45894 15.0268 8.36035 14.9053 8.36035H13.1453C13.0239 8.36035 12.9253 8.45894 12.9253 8.58035V17.3179C12.9253 17.4394 13.0238 17.5379 13.1453 17.5379H14.9053ZM14.9053 18.4179H13.1453C12.5378 18.4179 12.0453 17.9254 12.0453 17.3179V8.58035C12.0453 7.97296 12.5378 7.48035 13.1453 7.48035H14.9053C15.5128 7.48035 16.0053 7.97296 16.0053 8.58035V17.3179C16.0053 17.9254 15.5129 18.4179 14.9053 18.4179ZM20.8869 17.5379C21.0084 17.5379 21.1069 17.4394 21.1069 17.3179V7.48039C21.1069 7.35885 21.0084 7.26039 20.8869 7.26039H19.1269C19.098 7.26038 19.0694 7.26607 19.0427 7.27712C19.016 7.28818 18.9917 7.30438 18.9713 7.32481C18.9509 7.34524 18.9347 7.3695 18.9236 7.39619C18.9126 7.42289 18.9069 7.4515 18.9069 7.48039V17.3179C18.9069 17.4394 19.0053 17.5379 19.1269 17.5379H20.8869ZM20.8869 18.4179H19.1269C18.5193 18.4179 18.0269 17.9254 18.0269 17.3179V7.48039C18.0269 6.87285 18.5193 6.38039 19.1269 6.38039H20.8869C21.4944 6.38039 21.9869 6.87285 21.9869 7.48039V17.3179C21.9869 17.9254 21.4944 18.4179 20.8869 18.4179ZM20.7536 0.330174C14.553 3.82351 7.63269 5.88436 0.413446 6.32103C0.170887 6.3357 -0.0138568 6.54423 0.000817005 6.78679C0.0154908 7.02935 0.224018 7.21409 0.466577 7.19942C7.81973 6.75465 14.8695 4.65526 21.1855 1.09687C21.3972 0.977584 21.4722 0.709266 21.3529 0.497537C21.2336 0.285809 20.9653 0.210892 20.7536 0.330174Z" fill="#3D005E"/>
</svg>
