<svg width="21" height="22" viewBox="0 0 21 22" fill="none" xmlns="http://www.w3.org/2000/svg">
<g id="shipping-car_svgrepo.com" clip-path="url(#clip0_542_143607)">
<path id="Vector" d="M17.3578 5.1278C17.2772 5.02025 17.1726 4.93296 17.0523 4.87284C16.9321 4.81272 16.7995 4.78142 16.6651 4.78142H13.2013V3.91548C13.2013 3.45615 13.0188 3.01564 12.6941 2.69085C12.3693 2.36606 11.9288 2.18359 11.4694 2.18359H2.81001C2.35068 2.18359 1.91017 2.36606 1.58538 2.69085C1.26059 3.01564 1.07813 3.45615 1.07812 3.91548V15.1727C1.07813 15.4024 1.16936 15.6226 1.33175 15.785C1.49415 15.9474 1.7144 16.0387 1.94407 16.0387H2.81001C2.81001 16.9573 3.17494 17.8383 3.82452 18.4879C4.47411 19.1375 5.35513 19.5024 6.27378 19.5024C7.19243 19.5024 8.07345 19.1375 8.72303 18.4879C9.37261 17.8383 9.73755 16.9573 9.73755 16.0387H11.4694C11.4694 16.9573 11.8344 17.8383 12.4839 18.4879C13.1335 19.1375 14.0145 19.5024 14.9332 19.5024C15.8518 19.5024 16.7329 19.1375 17.3825 18.4879C18.032 17.8383 18.397 16.9573 18.397 16.0387C18.8563 16.0387 19.2968 15.8562 19.6216 15.5314C19.9464 15.2066 20.1289 14.7661 20.1289 14.3068V9.11113C20.1289 8.92377 20.0681 8.74146 19.9557 8.59156L17.3578 5.1278ZM6.27378 17.7705C5.93124 17.7705 5.5964 17.669 5.31159 17.4787C5.02679 17.2884 4.80481 17.0179 4.67372 16.7014C4.54264 16.385 4.50835 16.0367 4.57517 15.7008C4.642 15.3648 4.80694 15.0562 5.04915 14.814C5.29136 14.5718 5.59995 14.4069 5.9359 14.3401C6.27186 14.2732 6.62008 14.3075 6.93654 14.4386C7.253 14.5697 7.52348 14.7917 7.71379 15.0765C7.90409 15.3613 8.00566 15.6961 8.00566 16.0387C8.00566 16.498 7.8232 16.9385 7.4984 17.2633C7.17361 17.5881 6.7331 17.7705 6.27378 17.7705ZM11.4694 14.3068H9.25608C8.95594 13.7807 8.52197 13.3433 7.99819 13.0391C7.47442 12.7349 6.87949 12.5746 6.27378 12.5746C5.66807 12.5746 5.07314 12.7349 4.54936 13.0391C4.02559 13.3433 3.59161 13.7807 3.29147 14.3068H2.81001V9.11113H11.4694V14.3068ZM11.4694 5.64736V7.37925H2.81001V3.91548H11.4694V5.64736ZM14.9332 17.7705C14.5907 17.7705 14.2558 17.669 13.971 17.4787C13.6862 17.2884 13.4642 17.0179 13.3331 16.7014C13.2021 16.385 13.1678 16.0367 13.2346 15.7008C13.3014 15.3648 13.4664 15.0562 13.7086 14.814C13.9508 14.5718 14.2594 14.4069 14.5953 14.3401C14.9313 14.2732 15.2795 14.3075 15.596 14.4386C15.9124 14.5697 16.1829 14.7917 16.3732 15.0765C16.5635 15.3613 16.6651 15.6961 16.6651 16.0387C16.6651 16.498 16.4826 16.9385 16.1578 17.2633C15.833 17.5881 15.3925 17.7705 14.9332 17.7705ZM18.397 14.3068H17.9155C17.692 13.9111 17.3916 13.5642 17.0321 13.2863C16.6725 13.0084 16.261 12.8052 15.8218 12.6887C15.3825 12.5722 14.9244 12.5447 14.4744 12.6079C14.0244 12.671 13.5915 12.8235 13.2013 13.0564V6.5133H16.2321L18.397 9.39949V14.3068Z" fill="#3D005E"/>
</g>
<defs>
<clipPath id="clip0_542_143607">
<rect width="20.7826" height="20.7826" fill="white" transform="translate(0.210938 0.451172)"/>
</clipPath>
</defs>
</svg>
