<svg width="23" height="23" viewBox="0 0 23 23" fill="none" xmlns="http://www.w3.org/2000/svg">
<g clip-path="url(#clip0_1044_27682)">
<path fill-rule="evenodd" clip-rule="evenodd" d="M13.5234 14.0888L12.7346 14.8749L13.5234 15.6613C13.9596 16.0961 13.9596 16.8001 13.5234 17.2338C13.0871 17.6686 12.3809 17.6686 11.9458 17.2338L11.157 16.4474L10.3682 17.2338C9.93194 17.6686 9.2257 17.6686 8.78946 17.2338C8.35433 16.8001 8.35433 16.0961 8.78946 15.6613L9.57826 14.8749L8.78946 14.0888C8.35433 13.654 8.35433 12.95 8.78946 12.5163C9.2257 12.0815 9.93194 12.0815 10.3682 12.5163L11.157 13.3024L11.9458 12.5163C12.3809 12.0815 13.0871 12.0815 13.5234 12.5163C13.9596 12.95 13.9596 13.654 13.5234 14.0888ZM20.0826 19.2522C20.0826 19.866 19.5827 20.3643 18.9669 20.3643H3.34709C2.73011 20.3643 2.2314 19.866 2.2314 19.2522V10.3555C2.2314 9.74049 2.73011 9.24331 3.34709 9.24331H18.9669C19.5827 9.24331 20.0826 9.74049 20.0826 10.3555V19.2522ZM11.0554 2.48865C13.5758 2.48865 15.7648 4.7951 16.4253 7.01927H5.58407C6.08279 4.7951 8.38223 2.48865 11.0554 2.48865ZM19.981 7.01927H18.727C18.0453 3.68302 14.812 0.274414 11.0554 0.274414C7.18397 0.274414 3.87035 3.68302 3.33147 7.01927H2.12986C0.897017 7.01927 0 8.08582 0 9.31467V20.4354C0 21.6643 0.897017 22.5884 2.12986 22.5884H19.981C21.2139 22.5884 22.314 21.6643 22.314 20.4354V9.31467C22.314 8.08582 21.2139 7.01927 19.981 7.01927Z" fill="#8B8B8B"/>
</g>
<defs>
<clipPath id="clip0_1044_27682">
<rect width="22.314" height="22.314" fill="white" transform="translate(0 0.274414)"/>
</clipPath>
</defs>
</svg>
