<svg width="28" height="28" viewBox="0 0 28 28" fill="none" xmlns="http://www.w3.org/2000/svg">
<g id="system-pending-line_svgrepo.com">
<path id="Vector" d="M13.8563 5.34375C9.16032 5.34375 5.35547 9.15119 5.35547 13.8446C5.35547 18.538 9.16291 22.3455 13.8563 22.3455C18.5523 22.3455 22.3572 18.538 22.3572 13.8446C22.3572 9.15119 18.5498 5.34375 13.8563 5.34375ZM13.8563 20.4598C10.209 20.4598 7.24369 17.4945 7.24369 13.8472C7.24369 10.1999 10.209 7.23455 13.8563 7.23455C17.5036 7.23455 20.469 10.1999 20.469 13.8472C20.469 17.4945 17.501 20.4598 13.8563 20.4598Z" fill="#3D005E"/>
<path id="Vector_2" d="M14.8049 10.0635H12.9141V14.2325L16.0267 17.3451L17.3621 16.0097L14.8049 13.4525V10.0635Z" fill="#3D005E"/>
</g>
</svg>
