<svg width="22" height="22" viewBox="0 0 22 22" fill="none" xmlns="http://www.w3.org/2000/svg">
<path d="M15.7819 17.7213C14.607 16.4091 12.9 15.5833 11 15.5833C9.10006 15.5833 7.39284 16.4091 6.21793 17.7213M11 19.25C6.44365 19.25 2.75 15.5564 2.75 11C2.75 6.44365 6.44365 2.75 11 2.75C15.5564 2.75 19.25 6.44365 19.25 11C19.25 15.5564 15.5564 19.25 11 19.25ZM11 12.8333C9.48118 12.8333 8.25 11.6022 8.25 10.0833C8.25 8.56455 9.48118 7.33333 11 7.33333C12.5188 7.33333 13.75 8.56455 13.75 10.0833C13.75 11.6022 12.5188 12.8333 11 12.8333Z" stroke="#8B8B8B" stroke-width="1.83333" stroke-linecap="round" stroke-linejoin="round"/>
</svg>
