<svg width="23" height="23" viewBox="0 0 23 23" fill="none" xmlns="http://www.w3.org/2000/svg">
<path d="M22.0234 0H0.976646C0.439471 0 0 0.439471 0 0.976646V22.0234C0 22.5605 0.439471 23 0.976646 23H6.44588H16.603H22.0722C22.5605 23 23 22.5605 23 22.0234V0.976646C23 0.439471 22.5605 0 22.0234 0ZM7.37366 21.0955V11.2802H15.6263V21.0955H7.37366ZM21.0955 21.0955H17.6284V10.3036C17.6284 9.76642 17.1889 9.32695 16.6518 9.32695H6.44584C5.90866 9.32695 5.46919 9.76642 5.46919 10.3036V21.0955H1.95329V1.95329H21.0955V21.0955Z" fill="#8B8B8B"/>
</svg>
