<svg width="19" height="19" viewBox="0 0 19 19" fill="none" xmlns="http://www.w3.org/2000/svg">
<path d="M6.875 17.375H12.125M6.875 17.375V13M6.875 17.375H2.15C1.86005 17.375 1.625 17.14 1.625 16.85V13.525C1.625 13.235 1.86005 13 2.15 13H6.875M12.125 17.375V6.875M12.125 17.375H16.85C17.14 17.375 17.375 17.14 17.375 16.85V2.15C17.375 1.86005 17.14 1.625 16.85 1.625H12.65C12.36 1.625 12.125 1.86005 12.125 2.15V6.875M6.875 13V7.4C6.875 7.11005 7.11005 6.875 7.4 6.875H12.125" stroke="#8B8B8B" stroke-width="1.2717"/>
</svg>
