<svg width="20" height="24" viewBox="0 0 20 24" fill="none" xmlns="http://www.w3.org/2000/svg">
<path d="M15.2929 3.91099L15.3036 3.90564H15.3089L10 0.857422L4.69375 3.90564H4.68839L4.70714 3.91367L0.34375 6.42885V17.5717L10 23.1431L19.6563 17.5717V6.42885L15.2929 3.91099ZM9.21518 20.8824L5.38214 18.6699V14.9306L1.91071 12.9592V8.27439L9.21518 12.4878V20.8824ZM2.66607 6.8976L6.27411 4.81367L9.99464 6.94849L13.7205 4.80831L17.342 6.8976L10.0054 11.1297L2.66607 6.8976ZM18.0893 12.9726L14.6393 14.9306V18.6565L10.7848 20.8797V12.4931L18.0893 8.27974V12.9726Z" fill="#8B8B8B"/>
</svg>
