<svg width="19" height="19" viewBox="0 0 19 19" fill="none" xmlns="http://www.w3.org/2000/svg">
<path d="M11.1604 6.46086H5.2869V5.28616H11.1604V6.46086ZM13.5098 11.4028V15.8584H2.9375V2.93677H13.5098V5.043L16.6897 8.22291L13.5098 11.4028ZM13.5603 9.69128L12.0414 8.1724L9.39834 10.8155V12.3344H10.9172L13.5603 9.69128ZM13.5098 6.70403L12.8719 7.34189L14.3908 8.86077L15.0287 8.22291L13.5098 6.70403ZM12.3351 12.5775L11.4036 13.5091H5.2869V12.3344H8.22364V11.1597H5.2869V9.98496H8.56783L9.74253 8.81026H5.2869V7.63556H10.9172L12.3351 6.2177V4.11147H4.1122V14.6838H12.3351V12.5775Z" fill="#8B8B8B"/>
</svg>
